{
	"asset":{
		"generator":"Khronos glTF Blender I/O v5.2.39",
		"version":"2.0"
	},
	"scene":0,
	"scenes":[
		{
			"name":"Scene",
			"nodes":[
				0
			]
		}
	],
	"nodes":[
		{
			"mesh":0,
			"name":"Cactus_2",
			"scale":[
				0.7657817006111145,
				0.7657817006111145,
				0.7657817006111145
			]
		}
	],
	"materials":[
		{
			"alphaMode":"MASK",
			"name":"Green",
			"pbrMetallicRoughness":{
				"baseColorFactor":[
					1,
					1,
					1,
					0
				],
				"baseColorTexture":{
					"index":0,
					"texCoord":-1
				},
				"metallicFactor":0,
				"roughnessFactor":0.690034806728363
			}
		}
	],
	"meshes":[
		{
			"name":"Cube.029",
			"primitives":[
				{
					"attributes":{
						"POSITION":0,
						"NORMAL":1
					},
					"indices":2,
					"material":0
				}
			]
		}
	],
	"textures":[
		{
			"sampler":0,
			"source":0
		}
	],
	"images":[
		{
			"mimeType":"image/png",
			"name":"solid_0",
			"uri":"textures/solid_0.png"
		}
	],
	"accessors":[
		{
			"bufferView":0,
			"componentType":5126,
			"count":1426,
			"max":[
				0.4867335855960846,
				1.6868846416473389,
				0.4971880316734314
			],
			"min":[
				-0.21343477070331573,
				-0.010726936161518097,
				-0.5534803867340088
			],
			"type":"VEC3"
		},
		{
			"bufferView":1,
			"componentType":5126,
			"count":1426,
			"type":"VEC3"
		},
		{
			"bufferView":2,
			"componentType":5123,
			"count":2160,
			"type":"SCALAR"
		}
	],
	"bufferViews":[
		{
			"buffer":0,
			"byteLength":17112,
			"byteOffset":0,
			"target":34962
		},
		{
			"buffer":0,
			"byteLength":17112,
			"byteOffset":17112,
			"target":34962
		},
		{
			"buffer":0,
			"byteLength":4320,
			"byteOffset":34224,
			"target":34963
		}
	],
	"samplers":[
		{
			"magFilter":9729,
			"minFilter":9987
		}
	],
	"buffers":[
		{
			"byteLength":38544,
			"uri":"Cactus_2.bin"
		}
	]
}
