{
	"asset":{
		"generator":"Khronos glTF Blender I/O v5.2.39",
		"version":"2.0"
	},
	"scene":0,
	"scenes":[
		{
			"name":"Scene",
			"nodes":[
				0
			]
		}
	],
	"nodes":[
		{
			"mesh":0,
			"name":"CactusFlowers_4",
			"scale":[
				0.8667469024658203,
				0.8667469024658203,
				0.8667469024658203
			]
		}
	],
	"materials":[
		{
			"alphaMode":"MASK",
			"name":"Green",
			"pbrMetallicRoughness":{
				"baseColorFactor":[
					1,
					1,
					1,
					0
				],
				"baseColorTexture":{
					"index":0,
					"texCoord":-1
				},
				"metallicFactor":0,
				"roughnessFactor":0.690034806728363
			}
		},
		{
			"alphaMode":"MASK",
			"name":"Pink",
			"pbrMetallicRoughness":{
				"baseColorFactor":[
					1,
					1,
					1,
					0
				],
				"baseColorTexture":{
					"index":1,
					"texCoord":-1
				},
				"metallicFactor":0,
				"roughnessFactor":0.690034806728363
			}
		}
	],
	"meshes":[
		{
			"name":"Cube.008",
			"primitives":[
				{
					"attributes":{
						"POSITION":0,
						"NORMAL":1
					},
					"indices":2,
					"material":0
				},
				{
					"attributes":{
						"POSITION":3,
						"NORMAL":4
					},
					"indices":5,
					"material":1
				}
			]
		}
	],
	"textures":[
		{
			"sampler":0,
			"source":0
		},
		{
			"sampler":0,
			"source":1
		}
	],
	"images":[
		{
			"mimeType":"image/png",
			"name":"solid_0",
			"uri":"textures/solid_0.png"
		},
		{
			"mimeType":"image/png",
			"name":"solid_1",
			"uri":"textures/solid_1.png"
		}
	],
	"accessors":[
		{
			"bufferView":0,
			"componentType":5126,
			"count":2302,
			"max":[
				0.06583135575056076,
				1.353225827217102,
				0.5523867607116699
			],
			"min":[
				-0.04413999989628792,
				-0.017712146043777466,
				-0.3666309118270874
			],
			"type":"VEC3"
		},
		{
			"bufferView":1,
			"componentType":5126,
			"count":2302,
			"type":"VEC3"
		},
		{
			"bufferView":2,
			"componentType":5123,
			"count":3456,
			"type":"SCALAR"
		},
		{
			"bufferView":3,
			"componentType":5126,
			"count":960,
			"max":[
				0.035113487392663956,
				1.3667749166488647,
				0.5634755492210388
			],
			"min":[
				-0.021398236975073814,
				0.7840985059738159,
				-0.4084753394126892
			],
			"type":"VEC3"
		},
		{
			"bufferView":4,
			"componentType":5126,
			"count":960,
			"type":"VEC3"
		},
		{
			"bufferView":5,
			"componentType":5123,
			"count":1440,
			"type":"SCALAR"
		}
	],
	"bufferViews":[
		{
			"buffer":0,
			"byteLength":27624,
			"byteOffset":0,
			"target":34962
		},
		{
			"buffer":0,
			"byteLength":27624,
			"byteOffset":27624,
			"target":34962
		},
		{
			"buffer":0,
			"byteLength":6912,
			"byteOffset":55248,
			"target":34963
		},
		{
			"buffer":0,
			"byteLength":11520,
			"byteOffset":62160,
			"target":34962
		},
		{
			"buffer":0,
			"byteLength":11520,
			"byteOffset":73680,
			"target":34962
		},
		{
			"buffer":0,
			"byteLength":2880,
			"byteOffset":85200,
			"target":34963
		}
	],
	"samplers":[
		{
			"magFilter":9729,
			"minFilter":9987
		}
	],
	"buffers":[
		{
			"byteLength":88080,
			"uri":"CactusFlowers_4.bin"
		}
	]
}
