{
	"asset":{
		"generator":"Khronos glTF Blender I/O v5.2.39",
		"version":"2.0"
	},
	"scene":0,
	"scenes":[
		{
			"name":"Scene",
			"nodes":[
				0
			]
		}
	],
	"nodes":[
		{
			"mesh":0,
			"name":"PalmTree_1",
			"scale":[
				1.565505862236023,
				1.565505862236023,
				1.565505862236023
			]
		}
	],
	"materials":[
		{
			"alphaMode":"MASK",
			"name":"Wood",
			"pbrMetallicRoughness":{
				"baseColorFactor":[
					1,
					1,
					1,
					0
				],
				"baseColorTexture":{
					"index":0,
					"texCoord":-1
				},
				"metallicFactor":0,
				"roughnessFactor":0.690034806728363
			}
		},
		{
			"alphaMode":"MASK",
			"name":"Green",
			"pbrMetallicRoughness":{
				"baseColorFactor":[
					1,
					1,
					1,
					0
				],
				"baseColorTexture":{
					"index":1,
					"texCoord":-1
				},
				"metallicFactor":0,
				"roughnessFactor":0.690034806728363
			}
		},
		{
			"alphaMode":"MASK",
			"name":"DarkGreen",
			"pbrMetallicRoughness":{
				"baseColorFactor":[
					1,
					1,
					1,
					0
				],
				"baseColorTexture":{
					"index":2,
					"texCoord":-1
				},
				"metallicFactor":0,
				"roughnessFactor":0.690034806728363
			}
		}
	],
	"meshes":[
		{
			"name":"Cylinder.041",
			"primitives":[
				{
					"attributes":{
						"POSITION":0,
						"NORMAL":1
					},
					"indices":2,
					"material":0
				},
				{
					"attributes":{
						"POSITION":3,
						"NORMAL":4
					},
					"indices":5,
					"material":1
				},
				{
					"attributes":{
						"POSITION":6,
						"NORMAL":7
					},
					"indices":8,
					"material":2
				}
			]
		}
	],
	"textures":[
		{
			"sampler":0,
			"source":0
		},
		{
			"sampler":0,
			"source":1
		},
		{
			"sampler":0,
			"source":2
		}
	],
	"images":[
		{
			"mimeType":"image/png",
			"name":"solid_3",
			"uri":"textures/solid_3.png"
		},
		{
			"mimeType":"image/png",
			"name":"solid_2",
			"uri":"textures/solid_2.png"
		},
		{
			"mimeType":"image/png",
			"name":"solid_1",
			"uri":"textures/solid_1.png"
		}
	],
	"accessors":[
		{
			"bufferView":0,
			"componentType":5126,
			"count":176,
			"max":[
				0.15398624539375305,
				3.5653889179229736,
				0.6460177302360535
			],
			"min":[
				-0.19759593904018402,
				-0.023760326206684113,
				-0.1559581309556961
			],
			"type":"VEC3"
		},
		{
			"bufferView":1,
			"componentType":5126,
			"count":176,
			"type":"VEC3"
		},
		{
			"bufferView":2,
			"componentType":5123,
			"count":276,
			"type":"SCALAR"
		},
		{
			"bufferView":3,
			"componentType":5126,
			"count":2320,
			"max":[
				1.6093372106552124,
				4.44763708114624,
				1.5341037511825562
			],
			"min":[
				-1.267573356628418,
				2.873234748840332,
				-1.0748867988586426
			],
			"type":"VEC3"
		},
		{
			"bufferView":4,
			"componentType":5126,
			"count":2320,
			"type":"VEC3"
		},
		{
			"bufferView":5,
			"componentType":5123,
			"count":3420,
			"type":"SCALAR"
		},
		{
			"bufferView":6,
			"componentType":5126,
			"count":1100,
			"max":[
				1.1371914148330688,
				3.9370710849761963,
				1.2974423170089722
			],
			"min":[
				-1.194022297859192,
				2.437979221343994,
				-0.49133050441741943
			],
			"type":"VEC3"
		},
		{
			"bufferView":7,
			"componentType":5126,
			"count":1100,
			"type":"VEC3"
		},
		{
			"bufferView":8,
			"componentType":5123,
			"count":1620,
			"type":"SCALAR"
		}
	],
	"bufferViews":[
		{
			"buffer":0,
			"byteLength":2112,
			"byteOffset":0,
			"target":34962
		},
		{
			"buffer":0,
			"byteLength":2112,
			"byteOffset":2112,
			"target":34962
		},
		{
			"buffer":0,
			"byteLength":552,
			"byteOffset":4224,
			"target":34963
		},
		{
			"buffer":0,
			"byteLength":27840,
			"byteOffset":4776,
			"target":34962
		},
		{
			"buffer":0,
			"byteLength":27840,
			"byteOffset":32616,
			"target":34962
		},
		{
			"buffer":0,
			"byteLength":6840,
			"byteOffset":60456,
			"target":34963
		},
		{
			"buffer":0,
			"byteLength":13200,
			"byteOffset":67296,
			"target":34962
		},
		{
			"buffer":0,
			"byteLength":13200,
			"byteOffset":80496,
			"target":34962
		},
		{
			"buffer":0,
			"byteLength":3240,
			"byteOffset":93696,
			"target":34963
		}
	],
	"samplers":[
		{
			"magFilter":9729,
			"minFilter":9987
		}
	],
	"buffers":[
		{
			"byteLength":96936,
			"uri":"PalmTree_1.bin"
		}
	]
}
