{
	"asset":{
		"generator":"Khronos glTF Blender I/O v5.2.39",
		"version":"2.0"
	},
	"scene":0,
	"scenes":[
		{
			"name":"Scene",
			"nodes":[
				0
			]
		}
	],
	"nodes":[
		{
			"mesh":0,
			"name":"PalmTree_3",
			"scale":[
				1.8836562633514404,
				1.8836562633514404,
				1.8836562633514404
			]
		}
	],
	"materials":[
		{
			"alphaMode":"MASK",
			"name":"Wood",
			"pbrMetallicRoughness":{
				"baseColorFactor":[
					1,
					1,
					1,
					0
				],
				"baseColorTexture":{
					"index":0,
					"texCoord":-1
				},
				"metallicFactor":0,
				"roughnessFactor":0.690034806728363
			}
		},
		{
			"alphaMode":"MASK",
			"name":"Green",
			"pbrMetallicRoughness":{
				"baseColorFactor":[
					1,
					1,
					1,
					0
				],
				"baseColorTexture":{
					"index":1,
					"texCoord":-1
				},
				"metallicFactor":0,
				"roughnessFactor":0.690034806728363
			}
		},
		{
			"alphaMode":"MASK",
			"name":"DarkGreen",
			"pbrMetallicRoughness":{
				"baseColorFactor":[
					1,
					1,
					1,
					0
				],
				"baseColorTexture":{
					"index":2,
					"texCoord":-1
				},
				"metallicFactor":0,
				"roughnessFactor":0.690034806728363
			}
		},
		{
			"alphaMode":"MASK",
			"name":"Coconuts",
			"pbrMetallicRoughness":{
				"baseColorFactor":[
					1,
					1,
					1,
					0
				],
				"baseColorTexture":{
					"index":3,
					"texCoord":-1
				},
				"metallicFactor":0,
				"roughnessFactor":0.690034806728363
			}
		}
	],
	"meshes":[
		{
			"name":"Cylinder.037",
			"primitives":[
				{
					"attributes":{
						"POSITION":0,
						"NORMAL":1
					},
					"indices":2,
					"material":0
				},
				{
					"attributes":{
						"POSITION":3,
						"NORMAL":4
					},
					"indices":5,
					"material":1
				},
				{
					"attributes":{
						"POSITION":6,
						"NORMAL":7
					},
					"indices":8,
					"material":2
				},
				{
					"attributes":{
						"POSITION":9,
						"NORMAL":10
					},
					"indices":11,
					"material":3
				}
			]
		}
	],
	"textures":[
		{
			"sampler":0,
			"source":0
		},
		{
			"sampler":0,
			"source":1
		},
		{
			"sampler":0,
			"source":2
		},
		{
			"sampler":0,
			"source":3
		}
	],
	"images":[
		{
			"mimeType":"image/png",
			"name":"solid_3",
			"uri":"textures/solid_3.png"
		},
		{
			"mimeType":"image/png",
			"name":"solid_2",
			"uri":"textures/solid_2.png"
		},
		{
			"mimeType":"image/png",
			"name":"solid_1",
			"uri":"textures/solid_1.png"
		},
		{
			"mimeType":"image/png",
			"name":"solid_0",
			"uri":"textures/solid_0.png"
		}
	],
	"accessors":[
		{
			"bufferView":0,
			"componentType":5126,
			"count":168,
			"max":[
				0.15398624539375305,
				3.57314133644104,
				0.19802342355251312
			],
			"min":[
				-0.19759593904018402,
				-0.023760326206684113,
				-0.19588811695575714
			],
			"type":"VEC3"
		},
		{
			"bufferView":1,
			"componentType":5126,
			"count":168,
			"type":"VEC3"
		},
		{
			"bufferView":2,
			"componentType":5123,
			"count":276,
			"type":"SCALAR"
		},
		{
			"bufferView":3,
			"componentType":5126,
			"count":1564,
			"max":[
				1.1371914148330688,
				3.8084428310394287,
				1.2861648797988892
			],
			"min":[
				-1.267573356628418,
				2.4570562839508057,
				-1.1535186767578125
			],
			"type":"VEC3"
		},
		{
			"bufferView":4,
			"componentType":5126,
			"count":1564,
			"type":"VEC3"
		},
		{
			"bufferView":5,
			"componentType":5123,
			"count":2304,
			"type":"SCALAR"
		},
		{
			"bufferView":6,
			"componentType":5126,
			"count":1172,
			"max":[
				1.6093372106552124,
				3.9047691822052,
				1.3605289459228516
			],
			"min":[
				-0.9935946464538574,
				2.402254819869995,
				-0.630589485168457
			],
			"type":"VEC3"
		},
		{
			"bufferView":7,
			"componentType":5126,
			"count":1172,
			"type":"VEC3"
		},
		{
			"bufferView":8,
			"componentType":5123,
			"count":1728,
			"type":"SCALAR"
		},
		{
			"bufferView":9,
			"componentType":5126,
			"count":180,
			"max":[
				0.2645888924598694,
				3.6251654624938965,
				0.3204247057437897
			],
			"min":[
				-0.10417784005403519,
				3.3563692569732666,
				0.016641834750771523
			],
			"type":"VEC3"
		},
		{
			"bufferView":10,
			"componentType":5126,
			"count":180,
			"type":"VEC3"
		},
		{
			"bufferView":11,
			"componentType":5123,
			"count":180,
			"type":"SCALAR"
		}
	],
	"bufferViews":[
		{
			"buffer":0,
			"byteLength":2016,
			"byteOffset":0,
			"target":34962
		},
		{
			"buffer":0,
			"byteLength":2016,
			"byteOffset":2016,
			"target":34962
		},
		{
			"buffer":0,
			"byteLength":552,
			"byteOffset":4032,
			"target":34963
		},
		{
			"buffer":0,
			"byteLength":18768,
			"byteOffset":4584,
			"target":34962
		},
		{
			"buffer":0,
			"byteLength":18768,
			"byteOffset":23352,
			"target":34962
		},
		{
			"buffer":0,
			"byteLength":4608,
			"byteOffset":42120,
			"target":34963
		},
		{
			"buffer":0,
			"byteLength":14064,
			"byteOffset":46728,
			"target":34962
		},
		{
			"buffer":0,
			"byteLength":14064,
			"byteOffset":60792,
			"target":34962
		},
		{
			"buffer":0,
			"byteLength":3456,
			"byteOffset":74856,
			"target":34963
		},
		{
			"buffer":0,
			"byteLength":2160,
			"byteOffset":78312,
			"target":34962
		},
		{
			"buffer":0,
			"byteLength":2160,
			"byteOffset":80472,
			"target":34962
		},
		{
			"buffer":0,
			"byteLength":360,
			"byteOffset":82632,
			"target":34963
		}
	],
	"samplers":[
		{
			"magFilter":9729,
			"minFilter":9987
		}
	],
	"buffers":[
		{
			"byteLength":82992,
			"uri":"PalmTree_3.bin"
		}
	]
}
