{
	"asset":{
		"generator":"Khronos glTF Blender I/O v5.2.39",
		"version":"2.0"
	},
	"scene":0,
	"scenes":[
		{
			"name":"Scene",
			"nodes":[
				0
			]
		}
	],
	"nodes":[
		{
			"mesh":0,
			"name":"PalmTree_2",
			"scale":[
				2.20003080368042,
				2.20003080368042,
				2.20003080368042
			]
		}
	],
	"materials":[
		{
			"alphaMode":"MASK",
			"name":"Wood",
			"pbrMetallicRoughness":{
				"baseColorFactor":[
					1,
					1,
					1,
					0
				],
				"baseColorTexture":{
					"index":0,
					"texCoord":-1
				},
				"metallicFactor":0,
				"roughnessFactor":0.690034806728363
			}
		},
		{
			"alphaMode":"MASK",
			"name":"Green",
			"pbrMetallicRoughness":{
				"baseColorFactor":[
					1,
					1,
					1,
					0
				],
				"baseColorTexture":{
					"index":1,
					"texCoord":-1
				},
				"metallicFactor":0,
				"roughnessFactor":0.690034806728363
			}
		},
		{
			"alphaMode":"MASK",
			"name":"DarkGreen",
			"pbrMetallicRoughness":{
				"baseColorFactor":[
					1,
					1,
					1,
					0
				],
				"baseColorTexture":{
					"index":2,
					"texCoord":-1
				},
				"metallicFactor":0,
				"roughnessFactor":0.690034806728363
			}
		}
	],
	"meshes":[
		{
			"name":"Cylinder.039",
			"primitives":[
				{
					"attributes":{
						"POSITION":0,
						"NORMAL":1
					},
					"indices":2,
					"material":0
				},
				{
					"attributes":{
						"POSITION":3,
						"NORMAL":4
					},
					"indices":5,
					"material":1
				},
				{
					"attributes":{
						"POSITION":6,
						"NORMAL":7
					},
					"indices":8,
					"material":2
				}
			]
		}
	],
	"textures":[
		{
			"sampler":0,
			"source":0
		},
		{
			"sampler":0,
			"source":1
		},
		{
			"sampler":0,
			"source":2
		}
	],
	"images":[
		{
			"mimeType":"image/png",
			"name":"solid_2",
			"uri":"textures/solid_2.png"
		},
		{
			"mimeType":"image/png",
			"name":"solid_1",
			"uri":"textures/solid_1.png"
		},
		{
			"mimeType":"image/png",
			"name":"solid_0",
			"uri":"textures/solid_0.png"
		}
	],
	"accessors":[
		{
			"bufferView":0,
			"componentType":5126,
			"count":226,
			"max":[
				0.21328650414943695,
				2.5410923957824707,
				1.7440681457519531
			],
			"min":[
				-0.21417394280433655,
				-0.035411059856414795,
				-0.11245930194854736
			],
			"type":"VEC3"
		},
		{
			"bufferView":1,
			"componentType":5126,
			"count":226,
			"type":"VEC3"
		},
		{
			"bufferView":2,
			"componentType":5123,
			"count":348,
			"type":"SCALAR"
		},
		{
			"bufferView":3,
			"componentType":5126,
			"count":1588,
			"max":[
				1.2464532852172852,
				2.87363862991333,
				2.9227371215820312
			],
			"min":[
				-1.0744552612304688,
				1.3709709644317627,
				0.19482862949371338
			],
			"type":"VEC3"
		},
		{
			"bufferView":4,
			"componentType":5126,
			"count":1588,
			"type":"VEC3"
		},
		{
			"bufferView":5,
			"componentType":5123,
			"count":2340,
			"type":"SCALAR"
		},
		{
			"bufferView":6,
			"componentType":5126,
			"count":684,
			"max":[
				1.1649971008300781,
				2.703300952911377,
				3.065670967102051
			],
			"min":[
				-0.4349205493927002,
				1.4229848384857178,
				0.5288574695587158
			],
			"type":"VEC3"
		},
		{
			"bufferView":7,
			"componentType":5126,
			"count":684,
			"type":"VEC3"
		},
		{
			"bufferView":8,
			"componentType":5123,
			"count":1008,
			"type":"SCALAR"
		}
	],
	"bufferViews":[
		{
			"buffer":0,
			"byteLength":2712,
			"byteOffset":0,
			"target":34962
		},
		{
			"buffer":0,
			"byteLength":2712,
			"byteOffset":2712,
			"target":34962
		},
		{
			"buffer":0,
			"byteLength":696,
			"byteOffset":5424,
			"target":34963
		},
		{
			"buffer":0,
			"byteLength":19056,
			"byteOffset":6120,
			"target":34962
		},
		{
			"buffer":0,
			"byteLength":19056,
			"byteOffset":25176,
			"target":34962
		},
		{
			"buffer":0,
			"byteLength":4680,
			"byteOffset":44232,
			"target":34963
		},
		{
			"buffer":0,
			"byteLength":8208,
			"byteOffset":48912,
			"target":34962
		},
		{
			"buffer":0,
			"byteLength":8208,
			"byteOffset":57120,
			"target":34962
		},
		{
			"buffer":0,
			"byteLength":2016,
			"byteOffset":65328,
			"target":34963
		}
	],
	"samplers":[
		{
			"magFilter":9729,
			"minFilter":9987
		}
	],
	"buffers":[
		{
			"byteLength":67344,
			"uri":"PalmTree_2.bin"
		}
	]
}
