{
	"asset":{
		"generator":"Khronos glTF Blender I/O v5.2.39",
		"version":"2.0"
	},
	"scene":0,
	"scenes":[
		{
			"name":"Scene",
			"nodes":[
				0
			]
		}
	],
	"nodes":[
		{
			"mesh":0,
			"name":"PalmTree_4",
			"scale":[
				1.9584187269210815,
				1.9584187269210815,
				1.9584187269210815
			]
		}
	],
	"materials":[
		{
			"alphaMode":"MASK",
			"name":"Wood",
			"pbrMetallicRoughness":{
				"baseColorFactor":[
					1,
					1,
					1,
					0
				],
				"baseColorTexture":{
					"index":0,
					"texCoord":-1
				},
				"metallicFactor":0,
				"roughnessFactor":0.690034806728363
			}
		},
		{
			"alphaMode":"MASK",
			"name":"Green",
			"pbrMetallicRoughness":{
				"baseColorFactor":[
					1,
					1,
					1,
					0
				],
				"baseColorTexture":{
					"index":1,
					"texCoord":-1
				},
				"metallicFactor":0,
				"roughnessFactor":0.690034806728363
			}
		},
		{
			"alphaMode":"MASK",
			"name":"DarkGreen",
			"pbrMetallicRoughness":{
				"baseColorFactor":[
					1,
					1,
					1,
					0
				],
				"baseColorTexture":{
					"index":2,
					"texCoord":-1
				},
				"metallicFactor":0,
				"roughnessFactor":0.690034806728363
			}
		},
		{
			"alphaMode":"MASK",
			"name":"Coconuts",
			"pbrMetallicRoughness":{
				"baseColorFactor":[
					1,
					1,
					1,
					0
				],
				"baseColorTexture":{
					"index":3,
					"texCoord":-1
				},
				"metallicFactor":0,
				"roughnessFactor":0.690034806728363
			}
		}
	],
	"meshes":[
		{
			"name":"Cylinder.036",
			"primitives":[
				{
					"attributes":{
						"POSITION":0,
						"NORMAL":1
					},
					"indices":2,
					"material":0
				},
				{
					"attributes":{
						"POSITION":3,
						"NORMAL":4
					},
					"indices":5,
					"material":1
				},
				{
					"attributes":{
						"POSITION":6,
						"NORMAL":7
					},
					"indices":8,
					"material":2
				},
				{
					"attributes":{
						"POSITION":9,
						"NORMAL":10
					},
					"indices":11,
					"material":3
				}
			]
		}
	],
	"textures":[
		{
			"sampler":0,
			"source":0
		},
		{
			"sampler":0,
			"source":1
		},
		{
			"sampler":0,
			"source":2
		},
		{
			"sampler":0,
			"source":3
		}
	],
	"images":[
		{
			"mimeType":"image/png",
			"name":"solid_3",
			"uri":"textures/solid_3.png"
		},
		{
			"mimeType":"image/png",
			"name":"solid_2",
			"uri":"textures/solid_2.png"
		},
		{
			"mimeType":"image/png",
			"name":"solid_1",
			"uri":"textures/solid_1.png"
		},
		{
			"mimeType":"image/png",
			"name":"solid_0",
			"uri":"textures/solid_0.png"
		}
	],
	"accessors":[
		{
			"bufferView":0,
			"componentType":5126,
			"count":172,
			"max":[
				0.15398624539375305,
				3.230062246322632,
				0.28759339451789856
			],
			"min":[
				-0.19759593904018402,
				-0.0016643550479784608,
				-0.05960603430867195
			],
			"type":"VEC3"
		},
		{
			"bufferView":1,
			"componentType":5126,
			"count":172,
			"type":"VEC3"
		},
		{
			"bufferView":2,
			"componentType":5123,
			"count":276,
			"type":"SCALAR"
		},
		{
			"bufferView":3,
			"componentType":5126,
			"count":952,
			"max":[
				1.0824483633041382,
				3.470524311065674,
				1.1731823682785034
			],
			"min":[
				-1.0687305927276611,
				2.4635822772979736,
				-0.9489230513572693
			],
			"type":"VEC3"
		},
		{
			"bufferView":4,
			"componentType":5126,
			"count":952,
			"type":"VEC3"
		},
		{
			"bufferView":5,
			"componentType":5123,
			"count":1404,
			"type":"SCALAR"
		},
		{
			"bufferView":6,
			"componentType":5126,
			"count":880,
			"max":[
				1.2712279558181763,
				3.409820318222046,
				1.3978724479675293
			],
			"min":[
				-0.9640975594520569,
				2.119137763977051,
				-1.1922581195831299
			],
			"type":"VEC3"
		},
		{
			"bufferView":7,
			"componentType":5126,
			"count":880,
			"type":"VEC3"
		},
		{
			"bufferView":8,
			"componentType":5123,
			"count":1296,
			"type":"SCALAR"
		},
		{
			"bufferView":9,
			"componentType":5126,
			"count":180,
			"max":[
				0.27672243118286133,
				3.2872469425201416,
				0.32150179147720337
			],
			"min":[
				-0.034219976514577866,
				3.0184507369995117,
				-0.04682056978344917
			],
			"type":"VEC3"
		},
		{
			"bufferView":10,
			"componentType":5126,
			"count":180,
			"type":"VEC3"
		},
		{
			"bufferView":11,
			"componentType":5123,
			"count":180,
			"type":"SCALAR"
		}
	],
	"bufferViews":[
		{
			"buffer":0,
			"byteLength":2064,
			"byteOffset":0,
			"target":34962
		},
		{
			"buffer":0,
			"byteLength":2064,
			"byteOffset":2064,
			"target":34962
		},
		{
			"buffer":0,
			"byteLength":552,
			"byteOffset":4128,
			"target":34963
		},
		{
			"buffer":0,
			"byteLength":11424,
			"byteOffset":4680,
			"target":34962
		},
		{
			"buffer":0,
			"byteLength":11424,
			"byteOffset":16104,
			"target":34962
		},
		{
			"buffer":0,
			"byteLength":2808,
			"byteOffset":27528,
			"target":34963
		},
		{
			"buffer":0,
			"byteLength":10560,
			"byteOffset":30336,
			"target":34962
		},
		{
			"buffer":0,
			"byteLength":10560,
			"byteOffset":40896,
			"target":34962
		},
		{
			"buffer":0,
			"byteLength":2592,
			"byteOffset":51456,
			"target":34963
		},
		{
			"buffer":0,
			"byteLength":2160,
			"byteOffset":54048,
			"target":34962
		},
		{
			"buffer":0,
			"byteLength":2160,
			"byteOffset":56208,
			"target":34962
		},
		{
			"buffer":0,
			"byteLength":360,
			"byteOffset":58368,
			"target":34963
		}
	],
	"samplers":[
		{
			"magFilter":9729,
			"minFilter":9987
		}
	],
	"buffers":[
		{
			"byteLength":58728,
			"uri":"PalmTree_4.bin"
		}
	]
}
