{
	"asset":{
		"generator":"Khronos glTF Blender I/O v5.2.39",
		"version":"2.0"
	},
	"scene":0,
	"scenes":[
		{
			"name":"Scene",
			"nodes":[
				0
			]
		}
	],
	"nodes":[
		{
			"mesh":0,
			"name":"PineTree_1",
			"scale":[
				2.5925662517547607,
				2.5925662517547607,
				2.5925662517547607
			]
		}
	],
	"materials":[
		{
			"alphaMode":"MASK",
			"name":"Wood",
			"pbrMetallicRoughness":{
				"baseColorFactor":[
					1,
					1,
					1,
					0
				],
				"baseColorTexture":{
					"index":0,
					"texCoord":-1
				},
				"metallicFactor":0,
				"roughnessFactor":0.690034806728363
			}
		},
		{
			"alphaMode":"MASK",
			"name":"Green",
			"pbrMetallicRoughness":{
				"baseColorFactor":[
					1,
					1,
					1,
					0
				],
				"baseColorTexture":{
					"index":1,
					"texCoord":-1
				},
				"metallicFactor":0,
				"roughnessFactor":0.690034806728363
			}
		}
	],
	"meshes":[
		{
			"name":"Cylinder.018",
			"primitives":[
				{
					"attributes":{
						"POSITION":0,
						"NORMAL":1
					},
					"indices":2,
					"material":0
				},
				{
					"attributes":{
						"POSITION":3,
						"NORMAL":4
					},
					"indices":5,
					"material":1
				}
			]
		}
	],
	"textures":[
		{
			"sampler":0,
			"source":0
		},
		{
			"sampler":0,
			"source":1
		}
	],
	"images":[
		{
			"mimeType":"image/png",
			"name":"solid_2",
			"uri":"textures/solid_2.png"
		},
		{
			"mimeType":"image/png",
			"name":"solid_1",
			"uri":"textures/solid_1.png"
		}
	],
	"accessors":[
		{
			"bufferView":0,
			"componentType":5126,
			"count":108,
			"max":[
				0.206365704536438,
				2.4777348041534424,
				0.20836704969406128
			],
			"min":[
				-0.21101394295692444,
				-0.012996622361242771,
				-0.24933423101902008
			],
			"type":"VEC3"
		},
		{
			"bufferView":1,
			"componentType":5126,
			"count":108,
			"type":"VEC3"
		},
		{
			"bufferView":2,
			"componentType":5123,
			"count":168,
			"type":"SCALAR"
		},
		{
			"bufferView":3,
			"componentType":5126,
			"count":3603,
			"max":[
				1.021031141281128,
				2.68703031539917,
				0.9845377802848816
			],
			"min":[
				-0.9351301789283752,
				0.3321463465690613,
				-0.8308249711990356
			],
			"type":"VEC3"
		},
		{
			"bufferView":4,
			"componentType":5126,
			"count":3603,
			"type":"VEC3"
		},
		{
			"bufferView":5,
			"componentType":5123,
			"count":5592,
			"type":"SCALAR"
		}
	],
	"bufferViews":[
		{
			"buffer":0,
			"byteLength":1296,
			"byteOffset":0,
			"target":34962
		},
		{
			"buffer":0,
			"byteLength":1296,
			"byteOffset":1296,
			"target":34962
		},
		{
			"buffer":0,
			"byteLength":336,
			"byteOffset":2592,
			"target":34963
		},
		{
			"buffer":0,
			"byteLength":43236,
			"byteOffset":2928,
			"target":34962
		},
		{
			"buffer":0,
			"byteLength":43236,
			"byteOffset":46164,
			"target":34962
		},
		{
			"buffer":0,
			"byteLength":11184,
			"byteOffset":89400,
			"target":34963
		}
	],
	"samplers":[
		{
			"magFilter":9729,
			"minFilter":9987
		}
	],
	"buffers":[
		{
			"byteLength":100584,
			"uri":"PineTree_1.bin"
		}
	]
}
