{
	"asset":{
		"generator":"Khronos glTF Blender I/O v5.2.39",
		"version":"2.0"
	},
	"scene":0,
	"scenes":[
		{
			"name":"Scene",
			"nodes":[
				0
			]
		}
	],
	"nodes":[
		{
			"mesh":0,
			"name":"PineTree_5",
			"scale":[
				2.449091911315918,
				2.449091911315918,
				2.449091911315918
			]
		}
	],
	"materials":[
		{
			"alphaMode":"MASK",
			"name":"Wood",
			"pbrMetallicRoughness":{
				"baseColorFactor":[
					1,
					1,
					1,
					0
				],
				"baseColorTexture":{
					"index":0,
					"texCoord":-1
				},
				"metallicFactor":0,
				"roughnessFactor":0.690034806728363
			}
		},
		{
			"alphaMode":"MASK",
			"name":"Green",
			"pbrMetallicRoughness":{
				"baseColorFactor":[
					1,
					1,
					1,
					0
				],
				"baseColorTexture":{
					"index":1,
					"texCoord":-1
				},
				"metallicFactor":0,
				"roughnessFactor":0.690034806728363
			}
		}
	],
	"meshes":[
		{
			"name":"Cylinder.028",
			"primitives":[
				{
					"attributes":{
						"POSITION":0,
						"NORMAL":1
					},
					"indices":2,
					"material":0
				},
				{
					"attributes":{
						"POSITION":3,
						"NORMAL":4
					},
					"indices":5,
					"material":1
				}
			]
		}
	],
	"textures":[
		{
			"sampler":0,
			"source":0
		},
		{
			"sampler":0,
			"source":1
		}
	],
	"images":[
		{
			"mimeType":"image/png",
			"name":"solid_2",
			"uri":"textures/solid_2.png"
		},
		{
			"mimeType":"image/png",
			"name":"solid_1",
			"uri":"textures/solid_1.png"
		}
	],
	"accessors":[
		{
			"bufferView":0,
			"componentType":5126,
			"count":108,
			"max":[
				0.1536576896905899,
				2.4720728397369385,
				0.19699591398239136
			],
			"min":[
				-0.2607836127281189,
				-0.007846330292522907,
				-0.23432603478431702
			],
			"type":"VEC3"
		},
		{
			"bufferView":1,
			"componentType":5126,
			"count":108,
			"type":"VEC3"
		},
		{
			"bufferView":2,
			"componentType":5123,
			"count":168,
			"type":"SCALAR"
		},
		{
			"bufferView":3,
			"componentType":5126,
			"count":2966,
			"max":[
				0.7855910658836365,
				2.687030076980591,
				0.6361024975776672
			],
			"min":[
				-0.6870535612106323,
				1.0982773303985596,
				-0.7053425312042236
			],
			"type":"VEC3"
		},
		{
			"bufferView":4,
			"componentType":5126,
			"count":2966,
			"type":"VEC3"
		},
		{
			"bufferView":5,
			"componentType":5123,
			"count":4560,
			"type":"SCALAR"
		}
	],
	"bufferViews":[
		{
			"buffer":0,
			"byteLength":1296,
			"byteOffset":0,
			"target":34962
		},
		{
			"buffer":0,
			"byteLength":1296,
			"byteOffset":1296,
			"target":34962
		},
		{
			"buffer":0,
			"byteLength":336,
			"byteOffset":2592,
			"target":34963
		},
		{
			"buffer":0,
			"byteLength":35592,
			"byteOffset":2928,
			"target":34962
		},
		{
			"buffer":0,
			"byteLength":35592,
			"byteOffset":38520,
			"target":34962
		},
		{
			"buffer":0,
			"byteLength":9120,
			"byteOffset":74112,
			"target":34963
		}
	],
	"samplers":[
		{
			"magFilter":9729,
			"minFilter":9987
		}
	],
	"buffers":[
		{
			"byteLength":83232,
			"uri":"PineTree_5.bin"
		}
	]
}
