{
	"asset":{
		"generator":"Khronos glTF Blender I/O v5.2.39",
		"version":"2.0"
	},
	"scene":0,
	"scenes":[
		{
			"name":"Scene",
			"nodes":[
				0
			]
		}
	],
	"nodes":[
		{
			"mesh":0,
			"name":"Willow_2",
			"scale":[
				1.7444907426834106,
				1.7444907426834106,
				1.7444907426834106
			]
		}
	],
	"materials":[
		{
			"alphaMode":"MASK",
			"name":"Wood",
			"pbrMetallicRoughness":{
				"baseColorFactor":[
					1,
					1,
					1,
					0
				],
				"baseColorTexture":{
					"index":0,
					"texCoord":-1
				},
				"metallicFactor":0,
				"roughnessFactor":0.690034806728363
			}
		},
		{
			"alphaMode":"MASK",
			"name":"DarkGreen",
			"pbrMetallicRoughness":{
				"baseColorFactor":[
					1,
					1,
					1,
					0
				],
				"baseColorTexture":{
					"index":1,
					"texCoord":-1
				},
				"metallicFactor":0,
				"roughnessFactor":0.690034806728363
			}
		}
	],
	"meshes":[
		{
			"name":"Cube.011",
			"primitives":[
				{
					"attributes":{
						"POSITION":0,
						"NORMAL":1
					},
					"indices":2,
					"material":0
				},
				{
					"attributes":{
						"POSITION":3,
						"NORMAL":4
					},
					"indices":5,
					"material":1
				}
			]
		}
	],
	"textures":[
		{
			"sampler":0,
			"source":0
		},
		{
			"sampler":0,
			"source":1
		}
	],
	"images":[
		{
			"mimeType":"image/png",
			"name":"solid_2",
			"uri":"textures/solid_2.png"
		},
		{
			"mimeType":"image/png",
			"name":"solid_0",
			"uri":"textures/solid_0.png"
		}
	],
	"accessors":[
		{
			"bufferView":0,
			"componentType":5126,
			"count":3660,
			"max":[
				0.6412452459335327,
				2.7813491821289062,
				0.1664547175168991
			],
			"min":[
				-0.5326533317565918,
				-0.054959140717983246,
				-2.229602098464966
			],
			"type":"VEC3"
		},
		{
			"bufferView":1,
			"componentType":5126,
			"count":3660,
			"type":"VEC3"
		},
		{
			"bufferView":2,
			"componentType":5123,
			"count":5580,
			"type":"SCALAR"
		},
		{
			"bufferView":3,
			"componentType":5126,
			"count":1780,
			"max":[
				1.0841033458709717,
				3.2697930335998535,
				0.3070722222328186
			],
			"min":[
				-0.8708816766738892,
				0.4122873842716217,
				-2.801833391189575
			],
			"type":"VEC3"
		},
		{
			"bufferView":4,
			"componentType":5126,
			"count":1780,
			"type":"VEC3"
		},
		{
			"bufferView":5,
			"componentType":5123,
			"count":2676,
			"type":"SCALAR"
		}
	],
	"bufferViews":[
		{
			"buffer":0,
			"byteLength":43920,
			"byteOffset":0,
			"target":34962
		},
		{
			"buffer":0,
			"byteLength":43920,
			"byteOffset":43920,
			"target":34962
		},
		{
			"buffer":0,
			"byteLength":11160,
			"byteOffset":87840,
			"target":34963
		},
		{
			"buffer":0,
			"byteLength":21360,
			"byteOffset":99000,
			"target":34962
		},
		{
			"buffer":0,
			"byteLength":21360,
			"byteOffset":120360,
			"target":34962
		},
		{
			"buffer":0,
			"byteLength":5352,
			"byteOffset":141720,
			"target":34963
		}
	],
	"samplers":[
		{
			"magFilter":9729,
			"minFilter":9987
		}
	],
	"buffers":[
		{
			"byteLength":147072,
			"uri":"Willow_2.bin"
		}
	]
}
