{
	"asset":{
		"generator":"Khronos glTF Blender I/O v5.2.39",
		"version":"2.0"
	},
	"scene":0,
	"scenes":[
		{
			"name":"Scene",
			"nodes":[
				0
			]
		}
	],
	"nodes":[
		{
			"mesh":0,
			"name":"Willow_4",
			"scale":[
				1.5947515964508057,
				1.5947515964508057,
				1.5947515964508057
			]
		}
	],
	"materials":[
		{
			"alphaMode":"MASK",
			"name":"Wood",
			"pbrMetallicRoughness":{
				"baseColorFactor":[
					1,
					1,
					1,
					0
				],
				"baseColorTexture":{
					"index":0,
					"texCoord":-1
				},
				"metallicFactor":0,
				"roughnessFactor":0.690034806728363
			}
		},
		{
			"alphaMode":"MASK",
			"name":"DarkGreen",
			"pbrMetallicRoughness":{
				"baseColorFactor":[
					1,
					1,
					1,
					0
				],
				"baseColorTexture":{
					"index":1,
					"texCoord":-1
				},
				"metallicFactor":0,
				"roughnessFactor":0.690034806728363
			}
		}
	],
	"meshes":[
		{
			"name":"Cube.043",
			"primitives":[
				{
					"attributes":{
						"POSITION":0,
						"NORMAL":1
					},
					"indices":2,
					"material":0
				},
				{
					"attributes":{
						"POSITION":3,
						"NORMAL":4
					},
					"indices":5,
					"material":1
				}
			]
		}
	],
	"textures":[
		{
			"sampler":0,
			"source":0
		},
		{
			"sampler":0,
			"source":1
		}
	],
	"images":[
		{
			"mimeType":"image/png",
			"name":"solid_2",
			"uri":"textures/solid_2.png"
		},
		{
			"mimeType":"image/png",
			"name":"solid_0",
			"uri":"textures/solid_0.png"
		}
	],
	"accessors":[
		{
			"bufferView":0,
			"componentType":5126,
			"count":1564,
			"max":[
				0.48514172434806824,
				2.695842981338501,
				0.7112093567848206
			],
			"min":[
				-0.5295899510383606,
				-0.02709878236055374,
				-1.8749090433120728
			],
			"type":"VEC3"
		},
		{
			"bufferView":1,
			"componentType":5126,
			"count":1564,
			"type":"VEC3"
		},
		{
			"bufferView":2,
			"componentType":5123,
			"count":2352,
			"type":"SCALAR"
		},
		{
			"bufferView":3,
			"componentType":5126,
			"count":1566,
			"max":[
				1.2443914413452148,
				3.3590078353881836,
				0.9958520531654358
			],
			"min":[
				-0.941997766494751,
				0.5917364954948425,
				-2.048884391784668
			],
			"type":"VEC3"
		},
		{
			"bufferView":4,
			"componentType":5126,
			"count":1566,
			"type":"VEC3"
		},
		{
			"bufferView":5,
			"componentType":5123,
			"count":2352,
			"type":"SCALAR"
		}
	],
	"bufferViews":[
		{
			"buffer":0,
			"byteLength":18768,
			"byteOffset":0,
			"target":34962
		},
		{
			"buffer":0,
			"byteLength":18768,
			"byteOffset":18768,
			"target":34962
		},
		{
			"buffer":0,
			"byteLength":4704,
			"byteOffset":37536,
			"target":34963
		},
		{
			"buffer":0,
			"byteLength":18792,
			"byteOffset":42240,
			"target":34962
		},
		{
			"buffer":0,
			"byteLength":18792,
			"byteOffset":61032,
			"target":34962
		},
		{
			"buffer":0,
			"byteLength":4704,
			"byteOffset":79824,
			"target":34963
		}
	],
	"samplers":[
		{
			"magFilter":9729,
			"minFilter":9987
		}
	],
	"buffers":[
		{
			"byteLength":84528,
			"uri":"Willow_4.bin"
		}
	]
}
