{
	"asset":{
		"generator":"Khronos glTF Blender I/O v5.2.39",
		"version":"2.0"
	},
	"scene":0,
	"scenes":[
		{
			"name":"Scene",
			"nodes":[
				0
			]
		}
	],
	"nodes":[
		{
			"mesh":0,
			"name":"Bush_Common",
			"scale":[
				0.6005870699882507,
				0.6005870699882507,
				0.6005870699882507
			]
		}
	],
	"materials":[
		{
			"alphaCutoff":0.20000000298023224,
			"alphaMode":"MASK",
			"doubleSided":true,
			"name":"Leaves_TwistedTree",
			"pbrMetallicRoughness":{
				"baseColorTexture":{
					"index":0
				},
				"metallicFactor":0
			}
		}
	],
	"meshes":[
		{
			"name":"tree.008",
			"primitives":[
				{
					"attributes":{
						"POSITION":0,
						"NORMAL":1,
						"TEXCOORD_0":2
					},
					"indices":3,
					"material":0
				}
			]
		}
	],
	"textures":[
		{
			"sampler":0,
			"source":0
		}
	],
	"images":[
		{
			"mimeType":"image/png",
			"name":"Leaves_TwistedTree_C",
			"uri":"textures/Leaves_TwistedTree_C.png"
		}
	],
	"accessors":[
		{
			"bufferView":0,
			"componentType":5126,
			"count":1800,
			"max":[
				0.9913685917854309,
				1.3470909595489502,
				0.9907516837120056
			],
			"min":[
				-0.9234761595726013,
				-0.234694704413414,
				-0.9743891954421997
			],
			"type":"VEC3"
		},
		{
			"bufferView":1,
			"componentType":5126,
			"count":1800,
			"type":"VEC3"
		},
		{
			"bufferView":2,
			"componentType":5126,
			"count":1800,
			"type":"VEC2"
		},
		{
			"bufferView":3,
			"componentType":5123,
			"count":2700,
			"type":"SCALAR"
		}
	],
	"bufferViews":[
		{
			"buffer":0,
			"byteLength":21600,
			"byteOffset":0,
			"target":34962
		},
		{
			"buffer":0,
			"byteLength":21600,
			"byteOffset":21600,
			"target":34962
		},
		{
			"buffer":0,
			"byteLength":14400,
			"byteOffset":43200,
			"target":34962
		},
		{
			"buffer":0,
			"byteLength":5400,
			"byteOffset":57600,
			"target":34963
		}
	],
	"samplers":[
		{
			"magFilter":9729,
			"minFilter":9987
		}
	],
	"buffers":[
		{
			"byteLength":63000,
			"uri":"Bush_Common.bin"
		}
	]
}
