{
	"asset":{
		"generator":"Khronos glTF Blender I/O v5.2.39",
		"version":"2.0"
	},
	"scene":0,
	"scenes":[
		{
			"name":"Scene",
			"nodes":[
				0
			]
		}
	],
	"nodes":[
		{
			"mesh":0,
			"name":"Bush_Common_Flowers",
			"scale":[
				0.6005870699882507,
				0.6005870699882507,
				0.6005870699882507
			]
		}
	],
	"materials":[
		{
			"alphaCutoff":0.20000000298023224,
			"alphaMode":"MASK",
			"doubleSided":true,
			"name":"Leaves_NormalTree",
			"pbrMetallicRoughness":{
				"baseColorTexture":{
					"index":0
				},
				"metallicFactor":0
			}
		},
		{
			"alphaCutoff":0.20000000298023224,
			"alphaMode":"MASK",
			"doubleSided":true,
			"name":"Flowers",
			"pbrMetallicRoughness":{
				"baseColorTexture":{
					"index":1
				},
				"metallicFactor":0
			}
		}
	],
	"meshes":[
		{
			"name":"tree.009",
			"primitives":[
				{
					"attributes":{
						"POSITION":0,
						"NORMAL":1,
						"TEXCOORD_0":2
					},
					"indices":3,
					"material":0
				},
				{
					"attributes":{
						"POSITION":4,
						"NORMAL":5,
						"TEXCOORD_0":6
					},
					"indices":7,
					"material":1
				}
			]
		}
	],
	"textures":[
		{
			"sampler":0,
			"source":0
		},
		{
			"sampler":0,
			"source":1
		}
	],
	"images":[
		{
			"mimeType":"image/png",
			"name":"Leaves_NormalTree_C",
			"uri":"textures/Leaves_NormalTree_C.png"
		},
		{
			"mimeType":"image/png",
			"name":"Flowers",
			"uri":"textures/Flowers.png"
		}
	],
	"accessors":[
		{
			"bufferView":0,
			"componentType":5126,
			"count":1800,
			"max":[
				0.9913685917854309,
				1.3470909595489502,
				0.9907516837120056
			],
			"min":[
				-0.9234761595726013,
				-0.234694704413414,
				-0.9743891954421997
			],
			"type":"VEC3"
		},
		{
			"bufferView":1,
			"componentType":5126,
			"count":1800,
			"type":"VEC3"
		},
		{
			"bufferView":2,
			"componentType":5126,
			"count":1800,
			"type":"VEC2"
		},
		{
			"bufferView":3,
			"componentType":5123,
			"count":2700,
			"type":"SCALAR"
		},
		{
			"bufferView":4,
			"componentType":5126,
			"count":819,
			"max":[
				0.9718135595321655,
				1.328537940979004,
				0.98771071434021
			],
			"min":[
				-0.7453983426094055,
				0.2586841881275177,
				-0.9251851439476013
			],
			"type":"VEC3"
		},
		{
			"bufferView":5,
			"componentType":5126,
			"count":819,
			"type":"VEC3"
		},
		{
			"bufferView":6,
			"componentType":5126,
			"count":819,
			"type":"VEC2"
		},
		{
			"bufferView":7,
			"componentType":5123,
			"count":1404,
			"type":"SCALAR"
		}
	],
	"bufferViews":[
		{
			"buffer":0,
			"byteLength":21600,
			"byteOffset":0,
			"target":34962
		},
		{
			"buffer":0,
			"byteLength":21600,
			"byteOffset":21600,
			"target":34962
		},
		{
			"buffer":0,
			"byteLength":14400,
			"byteOffset":43200,
			"target":34962
		},
		{
			"buffer":0,
			"byteLength":5400,
			"byteOffset":57600,
			"target":34963
		},
		{
			"buffer":0,
			"byteLength":9828,
			"byteOffset":63000,
			"target":34962
		},
		{
			"buffer":0,
			"byteLength":9828,
			"byteOffset":72828,
			"target":34962
		},
		{
			"buffer":0,
			"byteLength":6552,
			"byteOffset":82656,
			"target":34962
		},
		{
			"buffer":0,
			"byteLength":2808,
			"byteOffset":89208,
			"target":34963
		}
	],
	"samplers":[
		{
			"magFilter":9729,
			"minFilter":9987
		}
	],
	"buffers":[
		{
			"byteLength":92016,
			"uri":"Bush_Common_Flowers.bin"
		}
	]
}
