{
	"asset":{
		"generator":"Khronos glTF Blender I/O v5.2.39",
		"version":"2.0"
	},
	"scene":0,
	"scenes":[
		{
			"name":"Scene",
			"nodes":[
				0
			]
		}
	],
	"nodes":[
		{
			"mesh":0,
			"name":"DeadTree_3",
			"scale":[
				0.3463754951953888,
				0.3463754951953888,
				0.3463754951953888
			]
		}
	],
	"materials":[
		{
			"doubleSided":true,
			"name":"Bark_DeadTree",
			"pbrMetallicRoughness":{
				"baseColorTexture":{
					"index":0
				},
				"metallicFactor":0
			}
		}
	],
	"meshes":[
		{
			"name":"tree.019",
			"primitives":[
				{
					"attributes":{
						"POSITION":0,
						"NORMAL":1,
						"TEXCOORD_0":2
					},
					"indices":3,
					"material":0
				}
			]
		}
	],
	"textures":[
		{
			"sampler":0,
			"source":0
		}
	],
	"images":[
		{
			"mimeType":"image/png",
			"name":"Bark_DeadTree",
			"uri":"textures/Bark_DeadTree.png"
		}
	],
	"accessors":[
		{
			"bufferView":0,
			"componentType":5126,
			"count":8863,
			"max":[
				2.540004014968872,
				12.944830894470215,
				3.043358564376831
			],
			"min":[
				-3.847569704055786,
				-0.3355545997619629,
				-3.3867006301879883
			],
			"type":"VEC3"
		},
		{
			"bufferView":1,
			"componentType":5126,
			"count":8863,
			"type":"VEC3"
		},
		{
			"bufferView":2,
			"componentType":5126,
			"count":8863,
			"type":"VEC2"
		},
		{
			"bufferView":3,
			"componentType":5123,
			"count":17406,
			"type":"SCALAR"
		}
	],
	"bufferViews":[
		{
			"buffer":0,
			"byteLength":106356,
			"byteOffset":0,
			"target":34962
		},
		{
			"buffer":0,
			"byteLength":106356,
			"byteOffset":106356,
			"target":34962
		},
		{
			"buffer":0,
			"byteLength":70904,
			"byteOffset":212712,
			"target":34962
		},
		{
			"buffer":0,
			"byteLength":34812,
			"byteOffset":283616,
			"target":34963
		}
	],
	"samplers":[
		{
			"magFilter":9729,
			"minFilter":9987
		}
	],
	"buffers":[
		{
			"byteLength":318428,
			"uri":"DeadTree_3.bin"
		}
	]
}
