{
	"asset":{
		"generator":"Khronos glTF Blender I/O v5.2.39",
		"version":"2.0"
	},
	"scene":0,
	"scenes":[
		{
			"name":"Scene",
			"nodes":[
				0
			]
		}
	],
	"nodes":[
		{
			"mesh":0,
			"name":"DeadTree_1",
			"scale":[
				0.4633784890174866,
				0.4633784890174866,
				0.4633784890174866
			]
		}
	],
	"materials":[
		{
			"doubleSided":true,
			"name":"Bark_DeadTree",
			"pbrMetallicRoughness":{
				"baseColorTexture":{
					"index":0
				},
				"metallicFactor":0
			}
		}
	],
	"meshes":[
		{
			"name":"tree",
			"primitives":[
				{
					"attributes":{
						"POSITION":0,
						"NORMAL":1,
						"TEXCOORD_0":2
					},
					"indices":3,
					"material":0
				}
			]
		}
	],
	"textures":[
		{
			"sampler":0,
			"source":0
		}
	],
	"images":[
		{
			"mimeType":"image/png",
			"name":"Bark_DeadTree",
			"uri":"textures/Bark_DeadTree.png"
		}
	],
	"accessors":[
		{
			"bufferView":0,
			"componentType":5126,
			"count":9221,
			"max":[
				3.556612253189087,
				9.15992259979248,
				2.845168113708496
			],
			"min":[
				-2.5923237800598145,
				-0.3355545997619629,
				-2.9034998416900635
			],
			"type":"VEC3"
		},
		{
			"bufferView":1,
			"componentType":5126,
			"count":9221,
			"type":"VEC3"
		},
		{
			"bufferView":2,
			"componentType":5126,
			"count":9221,
			"type":"VEC2"
		},
		{
			"bufferView":3,
			"componentType":5123,
			"count":18507,
			"type":"SCALAR"
		}
	],
	"bufferViews":[
		{
			"buffer":0,
			"byteLength":110652,
			"byteOffset":0,
			"target":34962
		},
		{
			"buffer":0,
			"byteLength":110652,
			"byteOffset":110652,
			"target":34962
		},
		{
			"buffer":0,
			"byteLength":73768,
			"byteOffset":221304,
			"target":34962
		},
		{
			"buffer":0,
			"byteLength":37014,
			"byteOffset":295072,
			"target":34963
		}
	],
	"samplers":[
		{
			"magFilter":9729,
			"minFilter":9987
		}
	],
	"buffers":[
		{
			"byteLength":332088,
			"uri":"DeadTree_1.bin"
		}
	]
}
