{
	"asset":{
		"generator":"Khronos glTF Blender I/O v5.2.39",
		"version":"2.0"
	},
	"scene":0,
	"scenes":[
		{
			"name":"Scene",
			"nodes":[
				0
			]
		}
	],
	"nodes":[
		{
			"mesh":0,
			"name":"DeadTree_2",
			"scale":[
				0.34818241000175476,
				0.34818241000175476,
				0.34818241000175476
			]
		}
	],
	"materials":[
		{
			"doubleSided":true,
			"name":"Bark_DeadTree",
			"pbrMetallicRoughness":{
				"baseColorTexture":{
					"index":0
				},
				"metallicFactor":0
			}
		}
	],
	"meshes":[
		{
			"name":"tree.043",
			"primitives":[
				{
					"attributes":{
						"POSITION":0,
						"NORMAL":1,
						"TEXCOORD_0":2
					},
					"indices":3,
					"material":0
				}
			]
		}
	],
	"textures":[
		{
			"sampler":0,
			"source":0
		}
	],
	"images":[
		{
			"mimeType":"image/png",
			"name":"Bark_DeadTree",
			"uri":"textures/Bark_DeadTree.png"
		}
	],
	"accessors":[
		{
			"bufferView":0,
			"componentType":5126,
			"count":9866,
			"max":[
				4.397274017333984,
				11.152676582336426,
				3.8556599617004395
			],
			"min":[
				-2.332343816757202,
				-0.3355545997619629,
				-2.522876024246216
			],
			"type":"VEC3"
		},
		{
			"bufferView":1,
			"componentType":5126,
			"count":9866,
			"type":"VEC3"
		},
		{
			"bufferView":2,
			"componentType":5126,
			"count":9866,
			"type":"VEC2"
		},
		{
			"bufferView":3,
			"componentType":5123,
			"count":19671,
			"type":"SCALAR"
		}
	],
	"bufferViews":[
		{
			"buffer":0,
			"byteLength":118392,
			"byteOffset":0,
			"target":34962
		},
		{
			"buffer":0,
			"byteLength":118392,
			"byteOffset":118392,
			"target":34962
		},
		{
			"buffer":0,
			"byteLength":78928,
			"byteOffset":236784,
			"target":34962
		},
		{
			"buffer":0,
			"byteLength":39342,
			"byteOffset":315712,
			"target":34963
		}
	],
	"samplers":[
		{
			"magFilter":9729,
			"minFilter":9987
		}
	],
	"buffers":[
		{
			"byteLength":355056,
			"uri":"DeadTree_2.bin"
		}
	]
}
