{
	"asset":{
		"generator":"Khronos glTF Blender I/O v5.2.39",
		"version":"2.0"
	},
	"scene":0,
	"scenes":[
		{
			"name":"Scene",
			"nodes":[
				0
			]
		}
	],
	"nodes":[
		{
			"mesh":0,
			"name":"Flower_4_Group",
			"scale":[
				0.18095774948596954,
				0.18095774948596954,
				0.18095774948596954
			]
		}
	],
	"materials":[
		{
			"alphaCutoff":0.20000000298023224,
			"alphaMode":"MASK",
			"doubleSided":true,
			"name":"Leaves",
			"pbrMetallicRoughness":{
				"baseColorTexture":{
					"index":0
				},
				"metallicFactor":0
			}
		},
		{
			"alphaCutoff":0.20000000298023224,
			"alphaMode":"MASK",
			"doubleSided":true,
			"name":"Flowers",
			"pbrMetallicRoughness":{
				"baseColorTexture":{
					"index":1
				},
				"metallicFactor":0
			}
		}
	],
	"meshes":[
		{
			"name":"Plane.003",
			"primitives":[
				{
					"attributes":{
						"POSITION":0,
						"NORMAL":1,
						"TEXCOORD_0":2
					},
					"indices":3,
					"material":0
				},
				{
					"attributes":{
						"POSITION":4,
						"NORMAL":5,
						"TEXCOORD_0":6
					},
					"indices":7,
					"material":1
				}
			]
		}
	],
	"textures":[
		{
			"sampler":0,
			"source":0
		},
		{
			"sampler":0,
			"source":1
		}
	],
	"images":[
		{
			"mimeType":"image/png",
			"name":"Leaves",
			"uri":"textures/Leaves.png"
		},
		{
			"mimeType":"image/png",
			"name":"Flowers",
			"uri":"textures/Flowers.png"
		}
	],
	"accessors":[
		{
			"bufferView":0,
			"componentType":5126,
			"count":302,
			"max":[
				0.6255365610122681,
				2.2943496704101562,
				0.5279141068458557
			],
			"min":[
				-0.7901612520217896,
				-0.05699761211872101,
				-0.6181322932243347
			],
			"type":"VEC3"
		},
		{
			"bufferView":1,
			"componentType":5126,
			"count":302,
			"type":"VEC3"
		},
		{
			"bufferView":2,
			"componentType":5126,
			"count":302,
			"type":"VEC2"
		},
		{
			"bufferView":3,
			"componentType":5123,
			"count":1470,
			"type":"SCALAR"
		},
		{
			"bufferView":4,
			"componentType":5126,
			"count":1000,
			"max":[
				0.8491399884223938,
				2.4297707080841064,
				0.7313783168792725
			],
			"min":[
				-0.9313857555389404,
				1.122023582458496,
				-0.6361504197120667
			],
			"type":"VEC3"
		},
		{
			"bufferView":5,
			"componentType":5126,
			"count":1000,
			"type":"VEC3"
		},
		{
			"bufferView":6,
			"componentType":5126,
			"count":1000,
			"type":"VEC2"
		},
		{
			"bufferView":7,
			"componentType":5123,
			"count":3600,
			"type":"SCALAR"
		}
	],
	"bufferViews":[
		{
			"buffer":0,
			"byteLength":3624,
			"byteOffset":0,
			"target":34962
		},
		{
			"buffer":0,
			"byteLength":3624,
			"byteOffset":3624,
			"target":34962
		},
		{
			"buffer":0,
			"byteLength":2416,
			"byteOffset":7248,
			"target":34962
		},
		{
			"buffer":0,
			"byteLength":2940,
			"byteOffset":9664,
			"target":34963
		},
		{
			"buffer":0,
			"byteLength":12000,
			"byteOffset":12604,
			"target":34962
		},
		{
			"buffer":0,
			"byteLength":12000,
			"byteOffset":24604,
			"target":34962
		},
		{
			"buffer":0,
			"byteLength":8000,
			"byteOffset":36604,
			"target":34962
		},
		{
			"buffer":0,
			"byteLength":7200,
			"byteOffset":44604,
			"target":34963
		}
	],
	"samplers":[
		{
			"magFilter":9729,
			"minFilter":9987
		}
	],
	"buffers":[
		{
			"byteLength":51804,
			"uri":"Flower_4_Group.bin"
		}
	]
}
