{
	"asset":{
		"generator":"Khronos glTF Blender I/O v5.2.39",
		"version":"2.0"
	},
	"scene":0,
	"scenes":[
		{
			"name":"Scene",
			"nodes":[
				0
			]
		}
	],
	"nodes":[
		{
			"mesh":0,
			"name":"Flower_3_Group",
			"scale":[
				0.21899567544460297,
				0.21899567544460297,
				0.21899567544460297
			]
		}
	],
	"materials":[
		{
			"alphaCutoff":0.20000000298023224,
			"alphaMode":"MASK",
			"doubleSided":true,
			"name":"Leaves",
			"pbrMetallicRoughness":{
				"baseColorTexture":{
					"index":0
				},
				"metallicFactor":0
			}
		},
		{
			"alphaCutoff":0.20000000298023224,
			"alphaMode":"MASK",
			"doubleSided":true,
			"name":"Flowers",
			"pbrMetallicRoughness":{
				"baseColorTexture":{
					"index":1
				},
				"metallicFactor":0
			}
		}
	],
	"meshes":[
		{
			"name":"Plane.021",
			"primitives":[
				{
					"attributes":{
						"POSITION":0,
						"NORMAL":1,
						"TEXCOORD_0":2
					},
					"indices":3,
					"material":0
				},
				{
					"attributes":{
						"POSITION":4,
						"NORMAL":5,
						"TEXCOORD_0":6
					},
					"indices":7,
					"material":1
				}
			]
		}
	],
	"textures":[
		{
			"sampler":0,
			"source":0
		},
		{
			"sampler":0,
			"source":1
		}
	],
	"images":[
		{
			"mimeType":"image/png",
			"name":"Leaves",
			"uri":"textures/Leaves.png"
		},
		{
			"mimeType":"image/png",
			"name":"Flowers",
			"uri":"textures/Flowers.png"
		}
	],
	"accessors":[
		{
			"bufferView":0,
			"componentType":5126,
			"count":542,
			"max":[
				0.7883017063140869,
				1.7742599248886108,
				0.7045559287071228
			],
			"min":[
				-0.568230926990509,
				-0.03458359092473984,
				-0.5427353382110596
			],
			"type":"VEC3"
		},
		{
			"bufferView":1,
			"componentType":5126,
			"count":542,
			"type":"VEC3"
		},
		{
			"bufferView":2,
			"componentType":5126,
			"count":542,
			"type":"VEC2"
		},
		{
			"bufferView":3,
			"componentType":5123,
			"count":2130,
			"type":"SCALAR"
		},
		{
			"bufferView":4,
			"componentType":5126,
			"count":48,
			"max":[
				0.8748752474784851,
				2.020251512527466,
				0.789365291595459
			],
			"min":[
				-0.6136013269424438,
				1.4516462087631226,
				-0.8017617464065552
			],
			"type":"VEC3"
		},
		{
			"bufferView":5,
			"componentType":5126,
			"count":48,
			"type":"VEC3"
		},
		{
			"bufferView":6,
			"componentType":5126,
			"count":48,
			"type":"VEC2"
		},
		{
			"bufferView":7,
			"componentType":5123,
			"count":135,
			"type":"SCALAR"
		}
	],
	"bufferViews":[
		{
			"buffer":0,
			"byteLength":6504,
			"byteOffset":0,
			"target":34962
		},
		{
			"buffer":0,
			"byteLength":6504,
			"byteOffset":6504,
			"target":34962
		},
		{
			"buffer":0,
			"byteLength":4336,
			"byteOffset":13008,
			"target":34962
		},
		{
			"buffer":0,
			"byteLength":4260,
			"byteOffset":17344,
			"target":34963
		},
		{
			"buffer":0,
			"byteLength":576,
			"byteOffset":21604,
			"target":34962
		},
		{
			"buffer":0,
			"byteLength":576,
			"byteOffset":22180,
			"target":34962
		},
		{
			"buffer":0,
			"byteLength":384,
			"byteOffset":22756,
			"target":34962
		},
		{
			"buffer":0,
			"byteLength":270,
			"byteOffset":23140,
			"target":34963
		}
	],
	"samplers":[
		{
			"magFilter":9729,
			"minFilter":9987
		}
	],
	"buffers":[
		{
			"byteLength":23412,
			"uri":"Flower_3_Group.bin"
		}
	]
}
