{
	"asset":{
		"generator":"Khronos glTF Blender I/O v5.2.39",
		"version":"2.0"
	},
	"scene":0,
	"scenes":[
		{
			"name":"Scene",
			"nodes":[
				0
			]
		}
	],
	"nodes":[
		{
			"mesh":0,
			"name":"Grass_Wispy_Short",
			"scale":[
				0.3731876313686371,
				0.3731876313686371,
				0.3731876313686371
			]
		}
	],
	"materials":[
		{
			"doubleSided":true,
			"name":"Grass",
			"pbrMetallicRoughness":{
				"baseColorTexture":{
					"index":0
				},
				"metallicFactor":0
			}
		}
	],
	"meshes":[
		{
			"name":"Plane.033",
			"primitives":[
				{
					"attributes":{
						"POSITION":0,
						"NORMAL":1,
						"TEXCOORD_0":2
					},
					"indices":3,
					"material":0
				}
			]
		}
	],
	"textures":[
		{
			"sampler":0,
			"source":0
		}
	],
	"images":[
		{
			"mimeType":"image/png",
			"name":"Grass",
			"uri":"textures/Grass.png"
		}
	],
	"accessors":[
		{
			"bufferView":0,
			"componentType":5126,
			"count":570,
			"max":[
				0.5941424369812012,
				0.9860967993736267,
				0.6269333362579346
			],
			"min":[
				-0.7280435562133789,
				-0.08575008809566498,
				-0.5828109979629517
			],
			"type":"VEC3"
		},
		{
			"bufferView":1,
			"componentType":5126,
			"count":570,
			"type":"VEC3"
		},
		{
			"bufferView":2,
			"componentType":5126,
			"count":570,
			"type":"VEC2"
		},
		{
			"bufferView":3,
			"componentType":5123,
			"count":1482,
			"type":"SCALAR"
		}
	],
	"bufferViews":[
		{
			"buffer":0,
			"byteLength":6840,
			"byteOffset":0,
			"target":34962
		},
		{
			"buffer":0,
			"byteLength":6840,
			"byteOffset":6840,
			"target":34962
		},
		{
			"buffer":0,
			"byteLength":4560,
			"byteOffset":13680,
			"target":34962
		},
		{
			"buffer":0,
			"byteLength":2964,
			"byteOffset":18240,
			"target":34963
		}
	],
	"samplers":[
		{
			"magFilter":9729,
			"minFilter":9987
		}
	],
	"buffers":[
		{
			"byteLength":21204,
			"uri":"Grass_Wispy_Short.bin"
		}
	]
}
