{
	"asset":{
		"generator":"Khronos glTF Blender I/O v5.2.39",
		"version":"2.0"
	},
	"scene":0,
	"scenes":[
		{
			"name":"Scene",
			"nodes":[
				0
			]
		}
	],
	"nodes":[
		{
			"mesh":0,
			"name":"CommonTree_4",
			"scale":[
				0.5085617899894714,
				0.5085617899894714,
				0.5085617899894714
			]
		}
	],
	"materials":[
		{
			"alphaCutoff":0.20000000298023224,
			"alphaMode":"MASK",
			"doubleSided":true,
			"name":"Bark_NormalTree",
			"pbrMetallicRoughness":{
				"baseColorTexture":{
					"index":0
				},
				"metallicFactor":0
			}
		},
		{
			"alphaCutoff":0.20000000298023224,
			"alphaMode":"MASK",
			"doubleSided":true,
			"name":"Leaves_NormalTree",
			"pbrMetallicRoughness":{
				"baseColorTexture":{
					"index":1
				},
				"metallicFactor":0
			}
		}
	],
	"meshes":[
		{
			"name":"tree.026",
			"primitives":[
				{
					"attributes":{
						"POSITION":0,
						"NORMAL":1,
						"TEXCOORD_0":2
					},
					"indices":3,
					"material":0
				},
				{
					"attributes":{
						"POSITION":4,
						"NORMAL":5,
						"TEXCOORD_0":6
					},
					"indices":7,
					"material":1
				}
			]
		}
	],
	"textures":[
		{
			"sampler":0,
			"source":0
		},
		{
			"sampler":0,
			"source":1
		}
	],
	"images":[
		{
			"mimeType":"image/png",
			"name":"Bark_NormalTree",
			"uri":"textures/Bark_NormalTree.png"
		},
		{
			"mimeType":"image/png",
			"name":"Leaves_NormalTree_C",
			"uri":"textures/Leaves_NormalTree_C.png"
		}
	],
	"accessors":[
		{
			"bufferView":0,
			"componentType":5126,
			"count":4920,
			"max":[
				1.236419439315796,
				7.957448959350586,
				1.0542998313903809
			],
			"min":[
				-1.167366862297058,
				-0.24277201294898987,
				-1.212726354598999
			],
			"type":"VEC3"
		},
		{
			"bufferView":1,
			"componentType":5126,
			"count":4920,
			"type":"VEC3"
		},
		{
			"bufferView":2,
			"componentType":5126,
			"count":4920,
			"type":"VEC2"
		},
		{
			"bufferView":3,
			"componentType":5123,
			"count":9840,
			"type":"SCALAR"
		},
		{
			"bufferView":4,
			"componentType":5126,
			"count":1572,
			"max":[
				2.028430461883545,
				9.195609092712402,
				1.6757631301879883
			],
			"min":[
				-1.7970952987670898,
				5.8085174560546875,
				-2.0796103477478027
			],
			"type":"VEC3"
		},
		{
			"bufferView":5,
			"componentType":5126,
			"count":1572,
			"type":"VEC3"
		},
		{
			"bufferView":6,
			"componentType":5126,
			"count":1572,
			"type":"VEC2"
		},
		{
			"bufferView":7,
			"componentType":5123,
			"count":2358,
			"type":"SCALAR"
		}
	],
	"bufferViews":[
		{
			"buffer":0,
			"byteLength":59040,
			"byteOffset":0,
			"target":34962
		},
		{
			"buffer":0,
			"byteLength":59040,
			"byteOffset":59040,
			"target":34962
		},
		{
			"buffer":0,
			"byteLength":39360,
			"byteOffset":118080,
			"target":34962
		},
		{
			"buffer":0,
			"byteLength":19680,
			"byteOffset":157440,
			"target":34963
		},
		{
			"buffer":0,
			"byteLength":18864,
			"byteOffset":177120,
			"target":34962
		},
		{
			"buffer":0,
			"byteLength":18864,
			"byteOffset":195984,
			"target":34962
		},
		{
			"buffer":0,
			"byteLength":12576,
			"byteOffset":214848,
			"target":34962
		},
		{
			"buffer":0,
			"byteLength":4716,
			"byteOffset":227424,
			"target":34963
		}
	],
	"samplers":[
		{
			"magFilter":9729,
			"minFilter":9987
		}
	],
	"buffers":[
		{
			"byteLength":232140,
			"uri":"CommonTree_4.bin"
		}
	]
}
