{
	"asset":{
		"generator":"Khronos glTF Blender I/O v5.2.39",
		"version":"2.0"
	},
	"scene":0,
	"scenes":[
		{
			"name":"Scene",
			"nodes":[
				0
			]
		}
	],
	"nodes":[
		{
			"mesh":0,
			"name":"CommonTree_5",
			"scale":[
				0.7421955466270447,
				0.7421955466270447,
				0.7421955466270447
			]
		}
	],
	"materials":[
		{
			"alphaCutoff":0.20000000298023224,
			"alphaMode":"MASK",
			"doubleSided":true,
			"name":"Bark_NormalTree",
			"pbrMetallicRoughness":{
				"baseColorTexture":{
					"index":0
				},
				"metallicFactor":0
			}
		},
		{
			"alphaCutoff":0.20000000298023224,
			"alphaMode":"MASK",
			"doubleSided":true,
			"name":"Leaves_NormalTree",
			"pbrMetallicRoughness":{
				"baseColorTexture":{
					"index":1
				},
				"metallicFactor":0
			}
		}
	],
	"meshes":[
		{
			"name":"tree.027",
			"primitives":[
				{
					"attributes":{
						"POSITION":0,
						"NORMAL":1,
						"TEXCOORD_0":2
					},
					"indices":3,
					"material":0
				},
				{
					"attributes":{
						"POSITION":4,
						"NORMAL":5,
						"TEXCOORD_0":6
					},
					"indices":7,
					"material":1
				}
			]
		}
	],
	"textures":[
		{
			"sampler":0,
			"source":0
		},
		{
			"sampler":0,
			"source":1
		}
	],
	"images":[
		{
			"mimeType":"image/png",
			"name":"Bark_NormalTree",
			"uri":"textures/Bark_NormalTree.png"
		},
		{
			"mimeType":"image/png",
			"name":"Leaves_NormalTree_C",
			"uri":"textures/Leaves_NormalTree_C.png"
		}
	],
	"accessors":[
		{
			"bufferView":0,
			"componentType":5126,
			"count":2598,
			"max":[
				0.9063012599945068,
				5.4537034034729,
				0.8049076795578003
			],
			"min":[
				-0.8957228064537048,
				-0.24277201294898987,
				-0.920511782169342
			],
			"type":"VEC3"
		},
		{
			"bufferView":1,
			"componentType":5126,
			"count":2598,
			"type":"VEC3"
		},
		{
			"bufferView":2,
			"componentType":5126,
			"count":2598,
			"type":"VEC2"
		},
		{
			"bufferView":3,
			"componentType":5123,
			"count":5646,
			"type":"SCALAR"
		},
		{
			"bufferView":4,
			"componentType":5126,
			"count":2600,
			"max":[
				1.7588107585906982,
				6.763467788696289,
				2.057202100753784
			],
			"min":[
				-1.912354588508606,
				2.356473684310913,
				-2.162447929382324
			],
			"type":"VEC3"
		},
		{
			"bufferView":5,
			"componentType":5126,
			"count":2600,
			"type":"VEC3"
		},
		{
			"bufferView":6,
			"componentType":5126,
			"count":2600,
			"type":"VEC2"
		},
		{
			"bufferView":7,
			"componentType":5123,
			"count":3900,
			"type":"SCALAR"
		}
	],
	"bufferViews":[
		{
			"buffer":0,
			"byteLength":31176,
			"byteOffset":0,
			"target":34962
		},
		{
			"buffer":0,
			"byteLength":31176,
			"byteOffset":31176,
			"target":34962
		},
		{
			"buffer":0,
			"byteLength":20784,
			"byteOffset":62352,
			"target":34962
		},
		{
			"buffer":0,
			"byteLength":11292,
			"byteOffset":83136,
			"target":34963
		},
		{
			"buffer":0,
			"byteLength":31200,
			"byteOffset":94428,
			"target":34962
		},
		{
			"buffer":0,
			"byteLength":31200,
			"byteOffset":125628,
			"target":34962
		},
		{
			"buffer":0,
			"byteLength":20800,
			"byteOffset":156828,
			"target":34962
		},
		{
			"buffer":0,
			"byteLength":7800,
			"byteOffset":177628,
			"target":34963
		}
	],
	"samplers":[
		{
			"magFilter":9729,
			"minFilter":9987
		}
	],
	"buffers":[
		{
			"byteLength":185428,
			"uri":"CommonTree_5.bin"
		}
	]
}
