{
	"asset":{
		"generator":"Khronos glTF Blender I/O v5.2.39",
		"version":"2.0"
	},
	"scene":0,
	"scenes":[
		{
			"name":"Scene",
			"nodes":[
				0
			]
		}
	],
	"nodes":[
		{
			"mesh":0,
			"name":"CommonTree_3",
			"scale":[
				0.5941525101661682,
				0.5941525101661682,
				0.5941525101661682
			]
		}
	],
	"materials":[
		{
			"alphaCutoff":0.20000000298023224,
			"alphaMode":"MASK",
			"doubleSided":true,
			"name":"Bark_NormalTree",
			"pbrMetallicRoughness":{
				"baseColorTexture":{
					"index":0
				},
				"metallicFactor":0
			}
		},
		{
			"alphaCutoff":0.20000000298023224,
			"alphaMode":"MASK",
			"doubleSided":true,
			"name":"Leaves_NormalTree",
			"pbrMetallicRoughness":{
				"baseColorTexture":{
					"index":1
				},
				"metallicFactor":0
			}
		}
	],
	"meshes":[
		{
			"name":"tree.025",
			"primitives":[
				{
					"attributes":{
						"POSITION":0,
						"NORMAL":1,
						"TEXCOORD_0":2
					},
					"indices":3,
					"material":0
				},
				{
					"attributes":{
						"POSITION":4,
						"NORMAL":5,
						"TEXCOORD_0":6
					},
					"indices":7,
					"material":1
				}
			]
		}
	],
	"textures":[
		{
			"sampler":0,
			"source":0
		},
		{
			"sampler":0,
			"source":1
		}
	],
	"images":[
		{
			"mimeType":"image/png",
			"name":"Bark_NormalTree",
			"uri":"textures/Bark_NormalTree.png"
		},
		{
			"mimeType":"image/png",
			"name":"Leaves_NormalTree_C",
			"uri":"textures/Leaves_NormalTree_C.png"
		}
	],
	"accessors":[
		{
			"bufferView":0,
			"componentType":5126,
			"count":2470,
			"max":[
				1.0429332256317139,
				7.97797966003418,
				1.102728247642517
			],
			"min":[
				-0.848488450050354,
				-0.24277201294898987,
				-0.8173294067382812
			],
			"type":"VEC3"
		},
		{
			"bufferView":1,
			"componentType":5126,
			"count":2470,
			"type":"VEC3"
		},
		{
			"bufferView":2,
			"componentType":5126,
			"count":2470,
			"type":"VEC2"
		},
		{
			"bufferView":3,
			"componentType":5123,
			"count":5115,
			"type":"SCALAR"
		},
		{
			"bufferView":4,
			"componentType":5126,
			"count":3600,
			"max":[
				2.076380968093872,
				9.182417869567871,
				2.1801114082336426
			],
			"min":[
				-1.9864652156829834,
				2.5763165950775146,
				-2.0609655380249023
			],
			"type":"VEC3"
		},
		{
			"bufferView":5,
			"componentType":5126,
			"count":3600,
			"type":"VEC3"
		},
		{
			"bufferView":6,
			"componentType":5126,
			"count":3600,
			"type":"VEC2"
		},
		{
			"bufferView":7,
			"componentType":5123,
			"count":5400,
			"type":"SCALAR"
		}
	],
	"bufferViews":[
		{
			"buffer":0,
			"byteLength":29640,
			"byteOffset":0,
			"target":34962
		},
		{
			"buffer":0,
			"byteLength":29640,
			"byteOffset":29640,
			"target":34962
		},
		{
			"buffer":0,
			"byteLength":19760,
			"byteOffset":59280,
			"target":34962
		},
		{
			"buffer":0,
			"byteLength":10230,
			"byteOffset":79040,
			"target":34963
		},
		{
			"buffer":0,
			"byteLength":43200,
			"byteOffset":89272,
			"target":34962
		},
		{
			"buffer":0,
			"byteLength":43200,
			"byteOffset":132472,
			"target":34962
		},
		{
			"buffer":0,
			"byteLength":28800,
			"byteOffset":175672,
			"target":34962
		},
		{
			"buffer":0,
			"byteLength":10800,
			"byteOffset":204472,
			"target":34963
		}
	],
	"samplers":[
		{
			"magFilter":9729,
			"minFilter":9987
		}
	],
	"buffers":[
		{
			"byteLength":215272,
			"uri":"CommonTree_3.bin"
		}
	]
}
