{
	"asset":{
		"generator":"Khronos glTF Blender I/O v5.2.39",
		"version":"2.0"
	},
	"scene":0,
	"scenes":[
		{
			"name":"Scene",
			"nodes":[
				0
			]
		}
	],
	"nodes":[
		{
			"mesh":0,
			"name":"CommonTree_2",
			"scale":[
				0.6541937589645386,
				0.6541937589645386,
				0.6541937589645386
			]
		}
	],
	"materials":[
		{
			"alphaCutoff":0.20000000298023224,
			"alphaMode":"MASK",
			"doubleSided":true,
			"name":"Bark_NormalTree",
			"pbrMetallicRoughness":{
				"baseColorTexture":{
					"index":0
				},
				"metallicFactor":0
			}
		},
		{
			"alphaCutoff":0.20000000298023224,
			"alphaMode":"MASK",
			"doubleSided":true,
			"name":"Leaves_NormalTree",
			"pbrMetallicRoughness":{
				"baseColorTexture":{
					"index":1
				},
				"metallicFactor":0
			}
		}
	],
	"meshes":[
		{
			"name":"tree.024",
			"primitives":[
				{
					"attributes":{
						"POSITION":0,
						"NORMAL":1,
						"TEXCOORD_0":2
					},
					"indices":3,
					"material":0
				},
				{
					"attributes":{
						"POSITION":4,
						"NORMAL":5,
						"TEXCOORD_0":6
					},
					"indices":7,
					"material":1
				}
			]
		}
	],
	"textures":[
		{
			"sampler":0,
			"source":0
		},
		{
			"sampler":0,
			"source":1
		}
	],
	"images":[
		{
			"mimeType":"image/png",
			"name":"Bark_NormalTree",
			"uri":"textures/Bark_NormalTree.png"
		},
		{
			"mimeType":"image/png",
			"name":"Leaves_NormalTree_C",
			"uri":"textures/Leaves_NormalTree_C.png"
		}
	],
	"accessors":[
		{
			"bufferView":0,
			"componentType":5126,
			"count":6209,
			"max":[
				1.3451228141784668,
				6.727368354797363,
				1.5685818195343018
			],
			"min":[
				-1.431023359298706,
				-0.24277201294898987,
				-0.9472540616989136
			],
			"type":"VEC3"
		},
		{
			"bufferView":1,
			"componentType":5126,
			"count":6209,
			"type":"VEC3"
		},
		{
			"bufferView":2,
			"componentType":5126,
			"count":6209,
			"type":"VEC2"
		},
		{
			"bufferView":3,
			"componentType":5123,
			"count":12930,
			"type":"SCALAR"
		},
		{
			"bufferView":4,
			"componentType":5126,
			"count":2676,
			"max":[
				2.24128794670105,
				7.400223731994629,
				2.4243826866149902
			],
			"min":[
				-2.2230136394500732,
				2.886406183242798,
				-1.8514697551727295
			],
			"type":"VEC3"
		},
		{
			"bufferView":5,
			"componentType":5126,
			"count":2676,
			"type":"VEC3"
		},
		{
			"bufferView":6,
			"componentType":5126,
			"count":2676,
			"type":"VEC2"
		},
		{
			"bufferView":7,
			"componentType":5123,
			"count":4014,
			"type":"SCALAR"
		}
	],
	"bufferViews":[
		{
			"buffer":0,
			"byteLength":74508,
			"byteOffset":0,
			"target":34962
		},
		{
			"buffer":0,
			"byteLength":74508,
			"byteOffset":74508,
			"target":34962
		},
		{
			"buffer":0,
			"byteLength":49672,
			"byteOffset":149016,
			"target":34962
		},
		{
			"buffer":0,
			"byteLength":25860,
			"byteOffset":198688,
			"target":34963
		},
		{
			"buffer":0,
			"byteLength":32112,
			"byteOffset":224548,
			"target":34962
		},
		{
			"buffer":0,
			"byteLength":32112,
			"byteOffset":256660,
			"target":34962
		},
		{
			"buffer":0,
			"byteLength":21408,
			"byteOffset":288772,
			"target":34962
		},
		{
			"buffer":0,
			"byteLength":8028,
			"byteOffset":310180,
			"target":34963
		}
	],
	"samplers":[
		{
			"magFilter":9729,
			"minFilter":9987
		}
	],
	"buffers":[
		{
			"byteLength":318208,
			"uri":"CommonTree_2.bin"
		}
	]
}
