{
	"asset":{
		"generator":"Khronos glTF Blender I/O v5.2.39",
		"version":"2.0"
	},
	"scene":0,
	"scenes":[
		{
			"name":"Scene",
			"nodes":[
				0
			]
		}
	],
	"nodes":[
		{
			"mesh":0,
			"name":"CommonTree_1",
			"scale":[
				0.7433117032051086,
				0.7433117032051086,
				0.7433117032051086
			]
		}
	],
	"materials":[
		{
			"alphaCutoff":0.20000000298023224,
			"alphaMode":"MASK",
			"doubleSided":true,
			"name":"Bark_NormalTree",
			"pbrMetallicRoughness":{
				"baseColorTexture":{
					"index":0
				},
				"metallicFactor":0
			}
		},
		{
			"alphaCutoff":0.20000000298023224,
			"alphaMode":"MASK",
			"doubleSided":true,
			"name":"Leaves_NormalTree",
			"pbrMetallicRoughness":{
				"baseColorTexture":{
					"index":1
				},
				"metallicFactor":0
			}
		}
	],
	"meshes":[
		{
			"name":"tree.023",
			"primitives":[
				{
					"attributes":{
						"POSITION":0,
						"NORMAL":1,
						"TEXCOORD_0":2
					},
					"indices":3,
					"material":0
				},
				{
					"attributes":{
						"POSITION":4,
						"NORMAL":5,
						"TEXCOORD_0":6
					},
					"indices":7,
					"material":1
				}
			]
		}
	],
	"textures":[
		{
			"sampler":0,
			"source":0
		},
		{
			"sampler":0,
			"source":1
		}
	],
	"images":[
		{
			"mimeType":"image/png",
			"name":"Bark_NormalTree",
			"uri":"textures/Bark_NormalTree.png"
		},
		{
			"mimeType":"image/png",
			"name":"Leaves_NormalTree_C",
			"uri":"textures/Leaves_NormalTree_C.png"
		}
	],
	"accessors":[
		{
			"bufferView":0,
			"componentType":5126,
			"count":6411,
			"max":[
				1.2684564590454102,
				6.483748912811279,
				1.3548027276992798
			],
			"min":[
				-1.3591265678405762,
				-0.24277201294898987,
				-1.126320481300354
			],
			"type":"VEC3"
		},
		{
			"bufferView":1,
			"componentType":5126,
			"count":6411,
			"type":"VEC3"
		},
		{
			"bufferView":2,
			"componentType":5126,
			"count":6411,
			"type":"VEC2"
		},
		{
			"bufferView":3,
			"componentType":5123,
			"count":13035,
			"type":"SCALAR"
		},
		{
			"bufferView":4,
			"componentType":5126,
			"count":3840,
			"max":[
				2.116964101791382,
				7.022013187408447,
				2.3531949520111084
			],
			"min":[
				-2.1944587230682373,
				2.3466193675994873,
				-2.2245190143585205
			],
			"type":"VEC3"
		},
		{
			"bufferView":5,
			"componentType":5126,
			"count":3840,
			"type":"VEC3"
		},
		{
			"bufferView":6,
			"componentType":5126,
			"count":3840,
			"type":"VEC2"
		},
		{
			"bufferView":7,
			"componentType":5123,
			"count":5760,
			"type":"SCALAR"
		}
	],
	"bufferViews":[
		{
			"buffer":0,
			"byteLength":76932,
			"byteOffset":0,
			"target":34962
		},
		{
			"buffer":0,
			"byteLength":76932,
			"byteOffset":76932,
			"target":34962
		},
		{
			"buffer":0,
			"byteLength":51288,
			"byteOffset":153864,
			"target":34962
		},
		{
			"buffer":0,
			"byteLength":26070,
			"byteOffset":205152,
			"target":34963
		},
		{
			"buffer":0,
			"byteLength":46080,
			"byteOffset":231224,
			"target":34962
		},
		{
			"buffer":0,
			"byteLength":46080,
			"byteOffset":277304,
			"target":34962
		},
		{
			"buffer":0,
			"byteLength":30720,
			"byteOffset":323384,
			"target":34962
		},
		{
			"buffer":0,
			"byteLength":11520,
			"byteOffset":354104,
			"target":34963
		}
	],
	"samplers":[
		{
			"magFilter":9729,
			"minFilter":9987
		}
	],
	"buffers":[
		{
			"byteLength":365624,
			"uri":"CommonTree_1.bin"
		}
	]
}
