{
	"asset":{
		"generator":"Khronos glTF Blender I/O v5.2.39",
		"version":"2.0"
	},
	"scene":0,
	"scenes":[
		{
			"name":"Scene",
			"nodes":[
				0
			]
		}
	],
	"nodes":[
		{
			"mesh":0,
			"name":"Pine_3",
			"scale":[
				0.879305362701416,
				0.879305362701416,
				0.879305362701416
			]
		}
	],
	"materials":[
		{
			"alphaCutoff":0.20000000298023224,
			"alphaMode":"MASK",
			"doubleSided":true,
			"name":"Bark_NormalTree",
			"pbrMetallicRoughness":{
				"baseColorTexture":{
					"index":0
				},
				"metallicFactor":0
			}
		},
		{
			"alphaCutoff":0.20000000298023224,
			"alphaMode":"MASK",
			"doubleSided":true,
			"name":"Leaves_Pine",
			"pbrMetallicRoughness":{
				"baseColorTexture":{
					"index":1
				},
				"metallicFactor":0
			}
		}
	],
	"meshes":[
		{
			"name":"tree.030",
			"primitives":[
				{
					"attributes":{
						"POSITION":0,
						"NORMAL":1,
						"TEXCOORD_0":2
					},
					"indices":3,
					"material":0
				},
				{
					"attributes":{
						"POSITION":4,
						"NORMAL":5,
						"TEXCOORD_0":6
					},
					"indices":7,
					"material":1
				}
			]
		}
	],
	"textures":[
		{
			"sampler":0,
			"source":0
		},
		{
			"sampler":0,
			"source":1
		}
	],
	"images":[
		{
			"mimeType":"image/png",
			"name":"Bark_NormalTree",
			"uri":"textures/Bark_NormalTree.png"
		},
		{
			"mimeType":"image/png",
			"name":"Leaf_Pine_C",
			"uri":"textures/Leaf_Pine_C.png"
		}
	],
	"accessors":[
		{
			"bufferView":0,
			"componentType":5126,
			"count":6580,
			"max":[
				1.0800867080688477,
				6.998227119445801,
				1.1170551776885986
			],
			"min":[
				-0.9482465982437134,
				-0.23508860170841217,
				-1.2420871257781982
			],
			"type":"VEC3"
		},
		{
			"bufferView":1,
			"componentType":5126,
			"count":6580,
			"type":"VEC3"
		},
		{
			"bufferView":2,
			"componentType":5126,
			"count":6580,
			"type":"VEC2"
		},
		{
			"bufferView":3,
			"componentType":5123,
			"count":13506,
			"type":"SCALAR"
		},
		{
			"bufferView":4,
			"componentType":5126,
			"count":834,
			"max":[
				1.4976577758789062,
				7.157110214233398,
				1.7034649848937988
			],
			"min":[
				-2.113736867904663,
				3.187588691711426,
				-2.2923386096954346
			],
			"type":"VEC3"
		},
		{
			"bufferView":5,
			"componentType":5126,
			"count":834,
			"type":"VEC3"
		},
		{
			"bufferView":6,
			"componentType":5126,
			"count":834,
			"type":"VEC2"
		},
		{
			"bufferView":7,
			"componentType":5123,
			"count":1386,
			"type":"SCALAR"
		}
	],
	"bufferViews":[
		{
			"buffer":0,
			"byteLength":78960,
			"byteOffset":0,
			"target":34962
		},
		{
			"buffer":0,
			"byteLength":78960,
			"byteOffset":78960,
			"target":34962
		},
		{
			"buffer":0,
			"byteLength":52640,
			"byteOffset":157920,
			"target":34962
		},
		{
			"buffer":0,
			"byteLength":27012,
			"byteOffset":210560,
			"target":34963
		},
		{
			"buffer":0,
			"byteLength":10008,
			"byteOffset":237572,
			"target":34962
		},
		{
			"buffer":0,
			"byteLength":10008,
			"byteOffset":247580,
			"target":34962
		},
		{
			"buffer":0,
			"byteLength":6672,
			"byteOffset":257588,
			"target":34962
		},
		{
			"buffer":0,
			"byteLength":2772,
			"byteOffset":264260,
			"target":34963
		}
	],
	"samplers":[
		{
			"magFilter":9729,
			"minFilter":9987
		}
	],
	"buffers":[
		{
			"byteLength":267032,
			"uri":"Pine_3.bin"
		}
	]
}
