{
	"asset":{
		"generator":"Khronos glTF Blender I/O v5.2.39",
		"version":"2.0"
	},
	"scene":0,
	"scenes":[
		{
			"name":"Scene",
			"nodes":[
				0
			]
		}
	],
	"nodes":[
		{
			"mesh":0,
			"name":"Pine_2",
			"scale":[
				0.7863086462020874,
				0.7863086462020874,
				0.7863086462020874
			]
		}
	],
	"materials":[
		{
			"alphaCutoff":0.20000000298023224,
			"alphaMode":"MASK",
			"doubleSided":true,
			"name":"Bark_NormalTree",
			"pbrMetallicRoughness":{
				"baseColorTexture":{
					"index":0
				},
				"metallicFactor":0
			}
		},
		{
			"alphaCutoff":0.20000000298023224,
			"alphaMode":"MASK",
			"doubleSided":true,
			"name":"Leaves_Pine",
			"pbrMetallicRoughness":{
				"baseColorTexture":{
					"index":1
				},
				"metallicFactor":0
			}
		}
	],
	"meshes":[
		{
			"name":"tree.029",
			"primitives":[
				{
					"attributes":{
						"POSITION":0,
						"NORMAL":1,
						"TEXCOORD_0":2
					},
					"indices":3,
					"material":0
				},
				{
					"attributes":{
						"POSITION":4,
						"NORMAL":5,
						"TEXCOORD_0":6
					},
					"indices":7,
					"material":1
				}
			]
		}
	],
	"textures":[
		{
			"sampler":0,
			"source":0
		},
		{
			"sampler":0,
			"source":1
		}
	],
	"images":[
		{
			"mimeType":"image/png",
			"name":"Bark_NormalTree",
			"uri":"textures/Bark_NormalTree.png"
		},
		{
			"mimeType":"image/png",
			"name":"Leaf_Pine_C",
			"uri":"textures/Leaf_Pine_C.png"
		}
	],
	"accessors":[
		{
			"bufferView":0,
			"componentType":5126,
			"count":4154,
			"max":[
				1.3288283348083496,
				6.861804008483887,
				1.4154813289642334
			],
			"min":[
				-0.8798791170120239,
				-0.23508860170841217,
				-1.9060800075531006
			],
			"type":"VEC3"
		},
		{
			"bufferView":1,
			"componentType":5126,
			"count":4154,
			"type":"VEC3"
		},
		{
			"bufferView":2,
			"componentType":5126,
			"count":4154,
			"type":"VEC2"
		},
		{
			"bufferView":3,
			"componentType":5123,
			"count":8634,
			"type":"SCALAR"
		},
		{
			"bufferView":4,
			"componentType":5126,
			"count":1386,
			"max":[
				2.8361265659332275,
				7.141149520874023,
				2.527508020401001
			],
			"min":[
				-2.891958236694336,
				1.1175905466079712,
				-2.6936988830566406
			],
			"type":"VEC3"
		},
		{
			"bufferView":5,
			"componentType":5126,
			"count":1386,
			"type":"VEC3"
		},
		{
			"bufferView":6,
			"componentType":5126,
			"count":1386,
			"type":"VEC2"
		},
		{
			"bufferView":7,
			"componentType":5123,
			"count":2310,
			"type":"SCALAR"
		}
	],
	"bufferViews":[
		{
			"buffer":0,
			"byteLength":49848,
			"byteOffset":0,
			"target":34962
		},
		{
			"buffer":0,
			"byteLength":49848,
			"byteOffset":49848,
			"target":34962
		},
		{
			"buffer":0,
			"byteLength":33232,
			"byteOffset":99696,
			"target":34962
		},
		{
			"buffer":0,
			"byteLength":17268,
			"byteOffset":132928,
			"target":34963
		},
		{
			"buffer":0,
			"byteLength":16632,
			"byteOffset":150196,
			"target":34962
		},
		{
			"buffer":0,
			"byteLength":16632,
			"byteOffset":166828,
			"target":34962
		},
		{
			"buffer":0,
			"byteLength":11088,
			"byteOffset":183460,
			"target":34962
		},
		{
			"buffer":0,
			"byteLength":4620,
			"byteOffset":194548,
			"target":34963
		}
	],
	"samplers":[
		{
			"magFilter":9729,
			"minFilter":9987
		}
	],
	"buffers":[
		{
			"byteLength":199168,
			"uri":"Pine_2.bin"
		}
	]
}
