{
	"asset":{
		"generator":"Khronos glTF Blender I/O v5.2.39",
		"version":"2.0"
	},
	"scene":0,
	"scenes":[
		{
			"name":"Scene",
			"nodes":[
				0
			]
		}
	],
	"nodes":[
		{
			"mesh":0,
			"name":"Pine_1",
			"scale":[
				0.8473513126373291,
				0.8473513126373291,
				0.8473513126373291
			]
		}
	],
	"materials":[
		{
			"alphaCutoff":0.20000000298023224,
			"alphaMode":"MASK",
			"doubleSided":true,
			"name":"Bark_NormalTree",
			"pbrMetallicRoughness":{
				"baseColorTexture":{
					"index":0
				},
				"metallicFactor":0
			}
		},
		{
			"alphaCutoff":0.20000000298023224,
			"alphaMode":"MASK",
			"doubleSided":true,
			"name":"Leaves_Pine",
			"pbrMetallicRoughness":{
				"baseColorTexture":{
					"index":1
				},
				"metallicFactor":0
			}
		}
	],
	"meshes":[
		{
			"name":"tree.028",
			"primitives":[
				{
					"attributes":{
						"POSITION":0,
						"NORMAL":1,
						"TEXCOORD_0":2
					},
					"indices":3,
					"material":0
				},
				{
					"attributes":{
						"POSITION":4,
						"NORMAL":5,
						"TEXCOORD_0":6
					},
					"indices":7,
					"material":1
				}
			]
		}
	],
	"textures":[
		{
			"sampler":0,
			"source":0
		},
		{
			"sampler":0,
			"source":1
		}
	],
	"images":[
		{
			"mimeType":"image/png",
			"name":"Bark_NormalTree",
			"uri":"textures/Bark_NormalTree.png"
		},
		{
			"mimeType":"image/png",
			"name":"Leaf_Pine_C",
			"uri":"textures/Leaf_Pine_C.png"
		}
	],
	"accessors":[
		{
			"bufferView":0,
			"componentType":5126,
			"count":4663,
			"max":[
				1.3389160633087158,
				6.822727203369141,
				1.3303884267807007
			],
			"min":[
				-1.0975136756896973,
				-0.23508860170841217,
				-1.8778250217437744
			],
			"type":"VEC3"
		},
		{
			"bufferView":1,
			"componentType":5126,
			"count":4663,
			"type":"VEC3"
		},
		{
			"bufferView":2,
			"componentType":5126,
			"count":4663,
			"type":"VEC2"
		},
		{
			"bufferView":3,
			"componentType":5123,
			"count":9531,
			"type":"SCALAR"
		},
		{
			"bufferView":4,
			"componentType":5126,
			"count":1236,
			"max":[
				2.4958789348602295,
				7.081829071044922,
				2.0614705085754395
			],
			"min":[
				-2.448819160461426,
				2.158754587173462,
				-2.4769327640533447
			],
			"type":"VEC3"
		},
		{
			"bufferView":5,
			"componentType":5126,
			"count":1236,
			"type":"VEC3"
		},
		{
			"bufferView":6,
			"componentType":5126,
			"count":1236,
			"type":"VEC2"
		},
		{
			"bufferView":7,
			"componentType":5123,
			"count":2310,
			"type":"SCALAR"
		}
	],
	"bufferViews":[
		{
			"buffer":0,
			"byteLength":55956,
			"byteOffset":0,
			"target":34962
		},
		{
			"buffer":0,
			"byteLength":55956,
			"byteOffset":55956,
			"target":34962
		},
		{
			"buffer":0,
			"byteLength":37304,
			"byteOffset":111912,
			"target":34962
		},
		{
			"buffer":0,
			"byteLength":19062,
			"byteOffset":149216,
			"target":34963
		},
		{
			"buffer":0,
			"byteLength":14832,
			"byteOffset":168280,
			"target":34962
		},
		{
			"buffer":0,
			"byteLength":14832,
			"byteOffset":183112,
			"target":34962
		},
		{
			"buffer":0,
			"byteLength":9888,
			"byteOffset":197944,
			"target":34962
		},
		{
			"buffer":0,
			"byteLength":4620,
			"byteOffset":207832,
			"target":34963
		}
	],
	"samplers":[
		{
			"magFilter":9729,
			"minFilter":9987
		}
	],
	"buffers":[
		{
			"byteLength":212452,
			"uri":"Pine_1.bin"
		}
	]
}
