{
	"asset":{
		"generator":"Khronos glTF Blender I/O v5.2.39",
		"version":"2.0"
	},
	"scene":0,
	"scenes":[
		{
			"name":"Scene",
			"nodes":[
				0
			]
		}
	],
	"nodes":[
		{
			"mesh":0,
			"name":"Pine_4",
			"scale":[
				0.5470656752586365,
				0.5470656752586365,
				0.5470656752586365
			]
		}
	],
	"materials":[
		{
			"alphaCutoff":0.20000000298023224,
			"alphaMode":"MASK",
			"doubleSided":true,
			"name":"Bark_NormalTree",
			"pbrMetallicRoughness":{
				"baseColorTexture":{
					"index":0
				},
				"metallicFactor":0
			}
		},
		{
			"alphaCutoff":0.20000000298023224,
			"alphaMode":"MASK",
			"doubleSided":true,
			"name":"Leaves_Pine",
			"pbrMetallicRoughness":{
				"baseColorTexture":{
					"index":1
				},
				"metallicFactor":0
			}
		}
	],
	"meshes":[
		{
			"name":"tree.031",
			"primitives":[
				{
					"attributes":{
						"POSITION":0,
						"NORMAL":1,
						"TEXCOORD_0":2
					},
					"indices":3,
					"material":0
				},
				{
					"attributes":{
						"POSITION":4,
						"NORMAL":5,
						"TEXCOORD_0":6
					},
					"indices":7,
					"material":1
				}
			]
		}
	],
	"textures":[
		{
			"sampler":0,
			"source":0
		},
		{
			"sampler":0,
			"source":1
		}
	],
	"images":[
		{
			"mimeType":"image/png",
			"name":"Bark_NormalTree",
			"uri":"textures/Bark_NormalTree.png"
		},
		{
			"mimeType":"image/png",
			"name":"Leaf_Pine_C",
			"uri":"textures/Leaf_Pine_C.png"
		}
	],
	"accessors":[
		{
			"bufferView":0,
			"componentType":5126,
			"count":3348,
			"max":[
				1.9782183170318604,
				9.700387001037598,
				0.8374438285827637
			],
			"min":[
				-1.9725096225738525,
				-0.23508861660957336,
				-1.9964979887008667
			],
			"type":"VEC3"
		},
		{
			"bufferView":1,
			"componentType":5126,
			"count":3348,
			"type":"VEC3"
		},
		{
			"bufferView":2,
			"componentType":5126,
			"count":3348,
			"type":"VEC2"
		},
		{
			"bufferView":3,
			"componentType":5123,
			"count":6480,
			"type":"SCALAR"
		},
		{
			"bufferView":4,
			"componentType":5126,
			"count":2029,
			"max":[
				2.930187225341797,
				10.0013427734375,
				2.424938201904297
			],
			"min":[
				-2.8718371391296387,
				2.4392924308776855,
				-2.9459073543548584
			],
			"type":"VEC3"
		},
		{
			"bufferView":5,
			"componentType":5126,
			"count":2029,
			"type":"VEC3"
		},
		{
			"bufferView":6,
			"componentType":5126,
			"count":2029,
			"type":"VEC2"
		},
		{
			"bufferView":7,
			"componentType":5123,
			"count":3630,
			"type":"SCALAR"
		}
	],
	"bufferViews":[
		{
			"buffer":0,
			"byteLength":40176,
			"byteOffset":0,
			"target":34962
		},
		{
			"buffer":0,
			"byteLength":40176,
			"byteOffset":40176,
			"target":34962
		},
		{
			"buffer":0,
			"byteLength":26784,
			"byteOffset":80352,
			"target":34962
		},
		{
			"buffer":0,
			"byteLength":12960,
			"byteOffset":107136,
			"target":34963
		},
		{
			"buffer":0,
			"byteLength":24348,
			"byteOffset":120096,
			"target":34962
		},
		{
			"buffer":0,
			"byteLength":24348,
			"byteOffset":144444,
			"target":34962
		},
		{
			"buffer":0,
			"byteLength":16232,
			"byteOffset":168792,
			"target":34962
		},
		{
			"buffer":0,
			"byteLength":7260,
			"byteOffset":185024,
			"target":34963
		}
	],
	"samplers":[
		{
			"magFilter":9729,
			"minFilter":9987
		}
	],
	"buffers":[
		{
			"byteLength":192284,
			"uri":"Pine_4.bin"
		}
	]
}
