{
	"asset":{
		"generator":"Khronos glTF Blender I/O v5.2.39",
		"version":"2.0"
	},
	"scene":0,
	"scenes":[
		{
			"name":"Scene",
			"nodes":[
				0
			]
		}
	],
	"nodes":[
		{
			"mesh":0,
			"name":"Pine_5",
			"scale":[
				0.6877730488777161,
				0.6877730488777161,
				0.6877730488777161
			]
		}
	],
	"materials":[
		{
			"alphaCutoff":0.20000000298023224,
			"alphaMode":"MASK",
			"doubleSided":true,
			"name":"Bark_NormalTree",
			"pbrMetallicRoughness":{
				"baseColorTexture":{
					"index":0
				},
				"metallicFactor":0
			}
		},
		{
			"alphaCutoff":0.20000000298023224,
			"alphaMode":"MASK",
			"doubleSided":true,
			"name":"Leaves_Pine",
			"pbrMetallicRoughness":{
				"baseColorTexture":{
					"index":1
				},
				"metallicFactor":0
			}
		}
	],
	"meshes":[
		{
			"name":"tree.032",
			"primitives":[
				{
					"attributes":{
						"POSITION":0,
						"NORMAL":1,
						"TEXCOORD_0":2
					},
					"indices":3,
					"material":0
				},
				{
					"attributes":{
						"POSITION":4,
						"NORMAL":5,
						"TEXCOORD_0":6
					},
					"indices":7,
					"material":1
				}
			]
		}
	],
	"textures":[
		{
			"sampler":0,
			"source":0
		},
		{
			"sampler":0,
			"source":1
		}
	],
	"images":[
		{
			"mimeType":"image/png",
			"name":"Bark_NormalTree",
			"uri":"textures/Bark_NormalTree.png"
		},
		{
			"mimeType":"image/png",
			"name":"Leaf_Pine_C",
			"uri":"textures/Leaf_Pine_C.png"
		}
	],
	"accessors":[
		{
			"bufferView":0,
			"componentType":5126,
			"count":621,
			"max":[
				0.6472557783126831,
				8.332257270812988,
				0.4739142060279846
			],
			"min":[
				-0.47391438484191895,
				-0.23508861660957336,
				-1.5000479221343994
			],
			"type":"VEC3"
		},
		{
			"bufferView":1,
			"componentType":5126,
			"count":621,
			"type":"VEC3"
		},
		{
			"bufferView":2,
			"componentType":5126,
			"count":621,
			"type":"VEC2"
		},
		{
			"bufferView":3,
			"componentType":5123,
			"count":1464,
			"type":"SCALAR"
		},
		{
			"bufferView":4,
			"componentType":5126,
			"count":1880,
			"max":[
				3.432434320449829,
				8.48871898651123,
				2.4435970783233643
			],
			"min":[
				-2.987706422805786,
				1.453586220741272,
				-3.7784042358398438
			],
			"type":"VEC3"
		},
		{
			"bufferView":5,
			"componentType":5126,
			"count":1880,
			"type":"VEC3"
		},
		{
			"bufferView":6,
			"componentType":5126,
			"count":1880,
			"type":"VEC2"
		},
		{
			"bufferView":7,
			"componentType":5123,
			"count":3474,
			"type":"SCALAR"
		}
	],
	"bufferViews":[
		{
			"buffer":0,
			"byteLength":7452,
			"byteOffset":0,
			"target":34962
		},
		{
			"buffer":0,
			"byteLength":7452,
			"byteOffset":7452,
			"target":34962
		},
		{
			"buffer":0,
			"byteLength":4968,
			"byteOffset":14904,
			"target":34962
		},
		{
			"buffer":0,
			"byteLength":2928,
			"byteOffset":19872,
			"target":34963
		},
		{
			"buffer":0,
			"byteLength":22560,
			"byteOffset":22800,
			"target":34962
		},
		{
			"buffer":0,
			"byteLength":22560,
			"byteOffset":45360,
			"target":34962
		},
		{
			"buffer":0,
			"byteLength":15040,
			"byteOffset":67920,
			"target":34962
		},
		{
			"buffer":0,
			"byteLength":6948,
			"byteOffset":82960,
			"target":34963
		}
	],
	"samplers":[
		{
			"magFilter":9729,
			"minFilter":9987
		}
	],
	"buffers":[
		{
			"byteLength":89908,
			"uri":"Pine_5.bin"
		}
	]
}
