{
	"asset":{
		"generator":"Khronos glTF Blender I/O v5.2.39",
		"version":"2.0"
	},
	"scene":0,
	"scenes":[
		{
			"name":"Scene",
			"nodes":[
				0
			]
		}
	],
	"nodes":[
		{
			"mesh":0,
			"name":"TwistedTree_1",
			"scale":[
				0.38264933228492737,
				0.38264933228492737,
				0.38264933228492737
			]
		}
	],
	"materials":[
		{
			"doubleSided":true,
			"name":"Bark_TwistedTree",
			"pbrMetallicRoughness":{
				"baseColorTexture":{
					"index":0
				},
				"metallicFactor":0
			}
		},
		{
			"alphaCutoff":0.20000000298023224,
			"alphaMode":"MASK",
			"doubleSided":true,
			"name":"Leaves_TwistedTree",
			"pbrMetallicRoughness":{
				"baseColorTexture":{
					"index":1
				},
				"metallicFactor":0
			}
		}
	],
	"meshes":[
		{
			"name":"tree.038",
			"primitives":[
				{
					"attributes":{
						"POSITION":0,
						"NORMAL":1,
						"TEXCOORD_0":2
					},
					"indices":3,
					"material":0
				},
				{
					"attributes":{
						"POSITION":4,
						"NORMAL":5,
						"TEXCOORD_0":6
					},
					"indices":7,
					"material":1
				}
			]
		}
	],
	"textures":[
		{
			"sampler":0,
			"source":0
		},
		{
			"sampler":0,
			"source":1
		}
	],
	"images":[
		{
			"mimeType":"image/png",
			"name":"Bark_TwistedTree",
			"uri":"textures/Bark_TwistedTree.png"
		},
		{
			"mimeType":"image/png",
			"name":"Leaves_TwistedTree_C",
			"uri":"textures/Leaves_TwistedTree_C.png"
		}
	],
	"accessors":[
		{
			"bufferView":0,
			"componentType":5126,
			"count":10733,
			"max":[
				9.911966323852539,
				15.281858444213867,
				3.4427638053894043
			],
			"min":[
				-1.498000979423523,
				-0.20147469639778137,
				-5.117466926574707
			],
			"type":"VEC3"
		},
		{
			"bufferView":1,
			"componentType":5126,
			"count":10733,
			"type":"VEC3"
		},
		{
			"bufferView":2,
			"componentType":5126,
			"count":10733,
			"type":"VEC2"
		},
		{
			"bufferView":3,
			"componentType":5123,
			"count":21636,
			"type":"SCALAR"
		},
		{
			"bufferView":4,
			"componentType":5126,
			"count":4704,
			"max":[
				11.341513633728027,
				16.52402114868164,
				4.822585105895996
			],
			"min":[
				-2.174241065979004,
				2.4449024200439453,
				-6.726779460906982
			],
			"type":"VEC3"
		},
		{
			"bufferView":5,
			"componentType":5126,
			"count":4704,
			"type":"VEC3"
		},
		{
			"bufferView":6,
			"componentType":5126,
			"count":4704,
			"type":"VEC2"
		},
		{
			"bufferView":7,
			"componentType":5123,
			"count":7056,
			"type":"SCALAR"
		}
	],
	"bufferViews":[
		{
			"buffer":0,
			"byteLength":128796,
			"byteOffset":0,
			"target":34962
		},
		{
			"buffer":0,
			"byteLength":128796,
			"byteOffset":128796,
			"target":34962
		},
		{
			"buffer":0,
			"byteLength":85864,
			"byteOffset":257592,
			"target":34962
		},
		{
			"buffer":0,
			"byteLength":43272,
			"byteOffset":343456,
			"target":34963
		},
		{
			"buffer":0,
			"byteLength":56448,
			"byteOffset":386728,
			"target":34962
		},
		{
			"buffer":0,
			"byteLength":56448,
			"byteOffset":443176,
			"target":34962
		},
		{
			"buffer":0,
			"byteLength":37632,
			"byteOffset":499624,
			"target":34962
		},
		{
			"buffer":0,
			"byteLength":14112,
			"byteOffset":537256,
			"target":34963
		}
	],
	"samplers":[
		{
			"magFilter":9729,
			"minFilter":9987
		}
	],
	"buffers":[
		{
			"byteLength":551368,
			"uri":"TwistedTree_1.bin"
		}
	]
}
